<svg xmlns:xlink="http://www.w3.org/1999/xlink" xmlns="http://www.w3.org/2000/svg" width="110" height="40" viewBox="0 0 99 36" fill="none">
<path d="M10.1538 10.1538H0V21.2308H10.1538V10.1538Z" fill="#6880FF"/>
<path d="M20.3077 0H10.1538V10.1538H20.3077V0Z" fill="#6880FF"/>
<path d="M10.1538 10.1538H0L10.1538 0V10.1538Z" fill="#6880FF" fill-opacity="0.5"/>
<path d="M16.6154 25.8462H26.7692V14.7692L16.6154 14.7692V25.8462Z" fill="#7C5BFF"/>
<path d="M7.38462 36H16.6154V25.8462H7.38462L7.38462 36Z" fill="#7C5BFF"/>
<path d="M16.6154 25.8462H26.7692L16.6154 36L16.6154 25.8462Z" fill="#7C5BFF" fill-opacity="0.5"/>
<path d="M45.0235 14.9728H47.201V25.0536H45.0235V23.602C44.2036 24.7445 43.0275 25.3158 41.4952 25.3158C40.1108 25.3158 38.9279 24.805 37.9467 23.7835C36.9655 22.7485 36.4749 21.4917 36.4749 20.0132C36.4749 18.5212 36.9655 17.2645 37.9467 16.2429C38.9279 15.2214 40.1108 14.7106 41.4952 14.7106C43.0275 14.7106 44.2036 15.2752 45.0235 16.4042V14.9728ZM39.5597 22.3318C40.1645 22.9367 40.9239 23.2391 41.838 23.2391C42.752 23.2391 43.5114 22.9367 44.1162 22.3318C44.7211 21.7135 45.0235 20.9406 45.0235 20.0132C45.0235 19.0858 44.7211 18.3196 44.1162 17.7148C43.5114 17.0965 42.752 16.7873 41.838 16.7873C40.9239 16.7873 40.1645 17.0965 39.5597 17.7148C38.9548 18.3196 38.6524 19.0858 38.6524 20.0132C38.6524 20.9406 38.9548 21.7135 39.5597 22.3318Z" fill="white"/>
<path d="M57.7231 14.9728H59.9006V25.0536H57.7231V23.602C56.9032 24.7445 55.7271 25.3158 54.1948 25.3158C52.8103 25.3158 51.6275 24.805 50.6463 23.7835C49.6651 22.7485 49.1745 21.4917 49.1745 20.0132C49.1745 18.5212 49.6651 17.2645 50.6463 16.2429C51.6275 15.2214 52.8103 14.7106 54.1948 14.7106C55.7271 14.7106 56.9032 15.2752 57.7231 16.4042V14.9728ZM52.2592 22.3318C52.8641 22.9367 53.6235 23.2391 54.5375 23.2391C55.4515 23.2391 56.2109 22.9367 56.8158 22.3318C57.4207 21.7135 57.7231 20.9406 57.7231 20.0132C57.7231 19.0858 57.4207 18.3196 56.8158 17.7148C56.2109 17.0965 55.4515 16.7873 54.5375 16.7873C53.6235 16.7873 52.8641 17.0965 52.2592 17.7148C51.6544 18.3196 51.352 19.0858 51.352 20.0132C51.352 20.9406 51.6544 21.7135 52.2592 22.3318Z" fill="white"/>
<path d="M64.4951 13.0574C64.2263 13.3262 63.9037 13.4606 63.5273 13.4606C63.151 13.4606 62.8216 13.3262 62.5394 13.0574C62.2706 12.7751 62.1361 12.4458 62.1361 12.0695C62.1361 11.6931 62.2706 11.3705 62.5394 11.1017C62.8082 10.8194 63.1375 10.6783 63.5273 10.6783C63.9171 10.6783 64.2464 10.8194 64.5152 11.1017C64.7841 11.3705 64.9185 11.6931 64.9185 12.0695C64.9185 12.4458 64.7773 12.7751 64.4951 13.0574ZM62.4386 25.0536V14.9728H64.616V25.0536H62.4386Z" fill="white"/>
<path d="M71.9025 25.3158C70.424 25.3158 69.1672 24.805 68.1322 23.7835C67.0973 22.7619 66.5798 21.5052 66.5798 20.0132C66.5798 18.5212 67.0973 17.2645 68.1322 16.2429C69.1672 15.2214 70.424 14.7106 71.9025 14.7106C73.3945 14.7106 74.6512 15.2214 75.6727 16.2429C76.7077 17.2645 77.2252 18.5212 77.2252 20.0132C77.2252 21.5052 76.7077 22.7619 75.6727 23.7835C74.6512 24.805 73.3945 25.3158 71.9025 25.3158ZM69.6645 22.2915C70.2694 22.8963 71.0154 23.1988 71.9025 23.1988C72.7896 23.1988 73.5356 22.8963 74.1404 22.2915C74.7453 21.6866 75.0477 20.9272 75.0477 20.0132C75.0477 19.0992 74.7453 18.3398 74.1404 17.7349C73.5356 17.1301 72.7896 16.8276 71.9025 16.8276C71.0154 16.8276 70.2694 17.1301 69.6645 17.7349C69.0597 18.3398 68.7572 19.0992 68.7572 20.0132C68.7572 20.9272 69.0597 21.6866 69.6645 22.2915Z" fill="white"/>
<path d="M80.766 24.852C80.4702 25.1477 80.1141 25.2956 79.6974 25.2956C79.2807 25.2956 78.9245 25.1477 78.6288 24.852C78.3331 24.5563 78.1852 24.2001 78.1852 23.7835C78.1852 23.3668 78.3264 23.0106 78.6086 22.7149C78.9044 22.4192 79.2673 22.2713 79.6974 22.2713C80.1141 22.2713 80.4702 22.4192 80.766 22.7149C81.0617 23.0106 81.2095 23.3668 81.2095 23.7835C81.2095 24.2001 81.0617 24.5563 80.766 24.852Z" fill="white"/>
<path d="M85.5823 13.0574C85.3134 13.3262 84.9908 13.4606 84.6145 13.4606C84.2381 13.4606 83.9088 13.3262 83.6266 13.0574C83.3577 12.7751 83.2233 12.4458 83.2233 12.0695C83.2233 11.6931 83.3577 11.3705 83.6266 11.1017C83.8954 10.8194 84.2247 10.6783 84.6145 10.6783C85.0043 10.6783 85.3336 10.8194 85.6024 11.1017C85.8712 11.3705 86.0057 11.6931 86.0057 12.0695C86.0057 12.4458 85.8645 12.7751 85.5823 13.0574ZM83.5258 25.0536V14.9728H85.7032V25.0536H83.5258Z" fill="white"/>
<path d="M92.9897 25.3158C91.5111 25.3158 90.2544 24.805 89.2194 23.7835C88.1844 22.7619 87.667 21.5052 87.667 20.0132C87.667 18.5212 88.1844 17.2645 89.2194 16.2429C90.2544 15.2214 91.5111 14.7106 92.9897 14.7106C94.4816 14.7106 95.7384 15.2214 96.7599 16.2429C97.7949 17.2645 98.3124 18.5212 98.3124 20.0132C98.3124 21.5052 97.7949 22.7619 96.7599 23.7835C95.7384 24.805 94.4816 25.3158 92.9897 25.3158ZM90.7517 22.2915C91.3566 22.8963 92.1026 23.1988 92.9897 23.1988C93.8768 23.1988 94.6228 22.8963 95.2276 22.2915C95.8325 21.6866 96.1349 20.9272 96.1349 20.0132C96.1349 19.0992 95.8325 18.3398 95.2276 17.7349C94.6228 17.1301 93.8768 16.8276 92.9897 16.8276C92.1026 16.8276 91.3566 17.1301 90.7517 17.7349C90.1469 18.3398 89.8444 19.0992 89.8444 20.0132C89.8444 20.9272 90.1469 21.6866 90.7517 22.2915Z" fill="white"/>
</svg>