<svg width="91" height="25" viewBox="0 0 91 25" fill="none" xmlns="http://www.w3.org/2000/svg"
    aria-hidden="true">
    <g class="astropay_svg__color">
        <path fill-rule="evenodd" clip-rule="evenodd"
            d="M59.465 1.497c2.133 0 3.784.496 4.865 1.475 1.023.921 1.593 2.265 1.608 3.8 0 1.578-.468 2.864-1.403 3.828-1.198 1.242-3.083 1.929-5.304 1.929-.351 0-.702-.015-1.038-.044v6.254h-3.288V1.891l.512-.088a25.302 25.302 0 014.047-.306zm-.19 8.124c1.256 0 3.36-.35 3.36-2.747 0-2.075-1.71-2.513-3.112-2.513-.555 0-.994.014-1.315.058v5.144c.292.043.643.058 1.067.058zM1 18.74L6.845 1.614h3.332l5.86 17.126h-3.508l-1.695-4.997H6.085L4.434 18.74H1zm5.933-7.847H10L8.73 7.167c-.064-.174-.117-.343-.169-.51-.03-.098-.061-.196-.094-.294-.055.186-.117.372-.182.563l-.066.197-1.286 3.77z"
            fill="#fff"></path>
        <path
            d="M20.055 9.563c0 .453.175.745 1.753 1.373 1.447.54 3.39 1.55 3.39 3.99 0 2.425-1.958 4.062-4.866 4.062-1.271 0-2.557-.322-3.521-.892l-.424-.248.877-2.762.672.395c.555.336 1.534.716 2.44.716.585 0 1.564-.132 1.564-1.067 0-.497-.132-.906-1.695-1.49-1.579-.57-3.449-1.696-3.449-3.814 0-2.31 1.914-3.975 4.56-3.975 1.183 0 2.352.292 3.126.804l.41.263L24 9.636l-.672-.424a3.871 3.871 0 00-2.002-.585c-.79 0-1.271.351-1.271.936zM30.356 3.133l-3.273.994v1.958h-1.768v2.82h1.768v5.597c0 1.563.307 2.674.965 3.42.643.686 1.592 1.08 2.703 1.08.994 0 1.71-.204 2.046-.321l.438-.146-.175-2.835-.76.22c-.22.058-.482.116-1.023.116-.395 0-.935 0-.935-1.593V8.905h2.966v-2.82h-2.952V3.133zM40.702 5.88l.6.088.014 3.288-.76-.16c-.146-.03-.307-.03-.57-.03-1.11 0-1.929.819-2.177 2.134-.03.219-.059.54-.059.847v6.693h-3.317v-8.475c0-1.433-.044-2.543-.102-3.522l-.044-.658h3.069l.044.92c.73-.744 1.68-1.168 2.718-1.168.233 0 .409.015.584.044z"
            fill="#fff"></path>
        <path fill-rule="evenodd" clip-rule="evenodd"
            d="M47.336 5.851c-3.697 0-6.283 2.733-6.283 6.663 0 3.829 2.498 6.488 6.093 6.488 3.04 0 6.298-2.09 6.298-6.678.015-3.813-2.499-6.473-6.108-6.473zm2.762 6.547c0 2.206-1.198 3.813-2.835 3.813s-2.82-1.592-2.82-3.755c0-1.403.599-3.785 2.864-3.785 2.206-.029 2.79 2.426 2.79 3.727zM76.006 15.378v-4.266c0-3.405-1.768-5.26-4.954-5.26-1.476 0-3.025.408-4.091 1.08l-.424.263.891 2.63.672-.452c.687-.468 1.68-.746 2.645-.746.672-.014 1.155.147 1.476.453.263.263.424.658.482 1.155-2.586.073-4.471.687-5.64 1.841-.804.804-1.213 1.812-1.213 3.025 0 1.943 1.403 3.901 4.12 3.901 1.155 0 2.237-.365 3.084-1.008l.088.76h3.141l-.117-.716c-.102-.701-.16-1.593-.16-2.66zm-5.524.848c-.497 0-1.315-.175-1.315-1.359 0-.453.132-.818.424-1.096.38-.38 1.242-.818 3.17-.848v1.36c0 .102-.014.277-.058.452-.234.687-.95 1.49-2.22 1.49z"
            fill="#fff"></path>
        <path
            d="M82.727 13.202l2.411-7.117h3.507l-3.433 8.973c-1.403 3.682-2.47 5.947-4.077 7.379-1.345 1.125-2.514 1.403-2.85 1.461l-.54.102-.848-2.834.585-.19c.277-.073.95-.322 1.607-.892l.015-.014c.584-.468 1.169-1.257 1.563-2.09l.023-.058c.026-.067.057-.146.08-.19 0-.03-.03-.117-.103-.263l-.014-.03-4.53-11.354h3.609l2.63 7.146c.073.16.132.336.19.511.03-.087.059-.179.088-.27l.087-.27z"
            fill="#fff"></path>
        <path
            d="M13.1 6.319c2.133-2.177 5.756-3.478 9.687-3.478 1.534 0 3.025.19 4.442.585l.117.029 2.514-.76-1.126-.438C26.586 1.438 24.117 1 21.574 1c-3.697 0-7.145.891-9.702 2.513l-.278.176L12.661 6.8l.438-.482z"
            fill="#20D5B3"></path>
    </g>
    <g class="astropay_svg__mono">
        <path fill-rule="evenodd" clip-rule="evenodd"
            d="M59.465 1.497c2.133 0 3.784.496 4.865 1.475 1.023.921 1.593 2.265 1.608 3.8 0 1.578-.468 2.864-1.403 3.828-1.198 1.242-3.083 1.929-5.304 1.929-.351 0-.702-.015-1.038-.044v6.254h-3.288V1.891l.512-.088a25.302 25.302 0 014.047-.306zm-.19 8.124c1.256 0 3.36-.35 3.36-2.747 0-2.075-1.71-2.513-3.112-2.513-.555 0-.994.014-1.315.058v5.144c.292.043.643.058 1.067.058zM1 18.74L6.845 1.614h3.332l5.86 17.126h-3.508l-1.695-4.997H6.085L4.434 18.74H1zm5.933-7.847H10L8.73 7.167c-.064-.174-.117-.343-.169-.51-.03-.098-.061-.196-.094-.294-.055.186-.117.372-.182.563l-.066.197-1.286 3.77z"
            fill="#34405E"></path>
        <path
            d="M20.055 9.563c0 .453.175.745 1.753 1.373 1.447.54 3.39 1.55 3.39 3.99 0 2.425-1.958 4.062-4.866 4.062-1.271 0-2.557-.322-3.521-.892l-.424-.248.877-2.762.672.395c.555.336 1.534.716 2.44.716.585 0 1.564-.132 1.564-1.067 0-.497-.132-.906-1.695-1.49-1.579-.57-3.449-1.696-3.449-3.814 0-2.31 1.914-3.975 4.56-3.975 1.183 0 2.352.292 3.126.804l.41.263L24 9.636l-.672-.424a3.871 3.871 0 00-2.002-.585c-.79 0-1.271.351-1.271.936zM30.356 3.133l-3.273.994v1.958h-1.768v2.82h1.768v5.597c0 1.563.307 2.674.965 3.42.643.686 1.592 1.08 2.703 1.08.994 0 1.71-.204 2.046-.321l.438-.146-.175-2.835-.76.22c-.22.058-.482.116-1.023.116-.395 0-.935 0-.935-1.593V8.905h2.966v-2.82h-2.952V3.133zM40.702 5.88l.6.088.014 3.288-.76-.16c-.146-.03-.307-.03-.57-.03-1.11 0-1.929.819-2.177 2.134-.03.219-.059.54-.059.847v6.693h-3.317v-8.475c0-1.433-.044-2.543-.102-3.522l-.044-.658h3.069l.044.92c.73-.744 1.68-1.168 2.718-1.168.233 0 .409.015.584.044z"
            fill="#34405E"></path>
        <path fill-rule="evenodd" clip-rule="evenodd"
            d="M47.336 5.851c-3.697 0-6.283 2.733-6.283 6.663 0 3.829 2.498 6.488 6.093 6.488 3.04 0 6.298-2.09 6.298-6.678.015-3.813-2.499-6.473-6.108-6.473zm2.762 6.547c0 2.206-1.198 3.813-2.835 3.813s-2.82-1.592-2.82-3.755c0-1.403.599-3.785 2.864-3.785 2.206-.029 2.79 2.426 2.79 3.727zM76.006 15.378v-4.266c0-3.405-1.768-5.26-4.954-5.26-1.476 0-3.025.408-4.091 1.08l-.424.263.891 2.63.672-.452c.687-.468 1.68-.746 2.645-.746.672-.014 1.155.147 1.476.453.263.263.424.658.482 1.155-2.586.073-4.471.687-5.64 1.841-.804.804-1.213 1.812-1.213 3.025 0 1.943 1.403 3.901 4.12 3.901 1.155 0 2.237-.365 3.084-1.008l.088.76h3.141l-.117-.716c-.102-.701-.16-1.593-.16-2.66zm-5.524.848c-.497 0-1.315-.175-1.315-1.359 0-.453.132-.818.424-1.096.38-.38 1.242-.818 3.17-.848v1.36c0 .102-.014.277-.058.452-.234.687-.95 1.49-2.22 1.49z"
            fill="#34405E"></path>
        <path
            d="M82.727 13.202l2.411-7.117h3.507l-3.433 8.973c-1.403 3.682-2.47 5.947-4.077 7.379-1.345 1.125-2.514 1.403-2.85 1.461l-.54.102-.848-2.834.585-.19c.277-.073.95-.322 1.607-.892l.015-.014c.584-.468 1.169-1.257 1.563-2.09l.023-.058c.026-.067.057-.146.08-.19 0-.03-.03-.117-.103-.263l-.014-.03-4.53-11.354h3.609l2.63 7.146c.073.16.132.336.19.511.03-.087.059-.179.088-.27l.087-.27z"
            fill="#34405E"></path>
        <path
            d="M13.1 6.319c2.133-2.177 5.756-3.478 9.687-3.478 1.534 0 3.025.19 4.442.585l.117.029 2.514-.76-1.126-.438C26.586 1.438 24.117 1 21.574 1c-3.697 0-7.145.891-9.702 2.513l-.278.176L12.661 6.8l.438-.482z"
            fill="#20D5B3"></path>
    </g>
</svg>