<svg xmlns="http://www.w3.org/2000/svg" width="184" height="63" viewBox="0 0 184 63" fill="none">
    <g clip-path="url(#clip0_188_15545)">
        <g clip-path="url(#clip1_188_15545)">
            <path
                d="M33.7117 -0.00830078C47.9109 -0.00830078 55.0137 -0.00830078 59.4199 4.40377C63.8324 8.81585 63.8324 15.9116 63.8324 30.1095V32.7303C63.8324 46.9281 63.8324 54.0239 59.4199 58.436C55.0074 62.848 47.9109 62.8481 33.7117 62.8481H31.0906C16.8913 62.8481 9.79482 62.848 5.3823 58.436C0.976074 54.0239 0.976074 46.9218 0.976074 32.724V30.1032C0.976074 15.9116 0.976074 8.80956 5.38859 4.40377C9.79482 -0.00830078 16.8976 -0.00830078 31.0968 -0.00830078H33.7179H33.7117Z"
                fill="#3744F5" />
            <path fill-rule="evenodd" clip-rule="evenodd"
                d="M35.7513 50.4154C44.7208 48.8261 51.5345 40.9615 51.5345 31.499C51.5345 20.8899 42.9696 12.2896 32.4043 12.2896C21.8389 12.2896 13.274 20.8899 13.274 31.499C13.274 41.2682 20.5366 49.3342 29.9361 50.55L32.8824 45.4257L35.7513 50.4154ZM32.4043 43.0246C26.0651 43.0246 20.9261 37.8644 20.9261 31.499C20.9261 25.1335 26.0651 19.9733 32.4043 19.9733C38.7435 19.9733 43.8824 25.1335 43.8824 31.499C43.8824 37.8644 38.7435 43.0246 32.4043 43.0246Z"
                fill="#F3F5F7" />
        </g>
        <path
            d="M82.6893 45.6001V17.2393H94.0914C96.1237 17.2393 97.7667 17.6463 99.0204 18.4604C100.274 19.2613 101.191 20.2723 101.772 21.4934C102.353 22.7145 102.643 23.9487 102.643 25.1961C102.643 26.7848 102.28 28.1044 101.554 29.1548C100.842 30.2052 99.8584 30.9076 98.6047 31.2621V30.2774C100.386 30.645 101.719 31.4656 102.603 32.7392C103.501 34.0129 103.949 35.4375 103.949 37.0131C103.949 38.7068 103.633 40.1971 102.999 41.4838C102.379 42.7706 101.429 43.7816 100.149 44.5169C98.8686 45.239 97.2586 45.6001 95.3187 45.6001H82.6893ZM88.1528 40.5582H94.7644C95.4902 40.5582 96.1369 40.4072 96.7043 40.1052C97.2718 39.7901 97.7139 39.3568 98.0306 38.8053C98.3605 38.2407 98.5255 37.5777 98.5255 36.8161C98.5255 36.1465 98.3869 35.5491 98.1098 35.0239C97.8327 34.4987 97.4104 34.0851 96.8429 33.7831C96.2886 33.468 95.5958 33.3104 94.7644 33.3104H88.1528V40.5582ZM88.1528 28.3079H94.0122C94.6192 28.3079 95.1603 28.2028 95.6354 27.9928C96.1105 27.7827 96.4866 27.461 96.7637 27.0277C97.0409 26.5813 97.1794 26.0101 97.1794 25.3142C97.1794 24.4477 96.9089 23.7189 96.3678 23.1281C95.8268 22.5372 95.0415 22.2418 94.0122 22.2418H88.1528V28.3079Z"
            fill="currentColor" />
        <path
            d="M120.131 46.1909C117.28 46.1909 114.819 45.5738 112.747 44.3396C110.688 43.1054 109.098 41.3788 107.976 39.1598C106.868 36.9408 106.314 34.3608 106.314 31.4197C106.314 28.4786 106.868 25.8985 107.976 23.6795C109.098 21.4606 110.688 19.734 112.747 18.4998C114.819 17.2655 117.28 16.6484 120.131 16.6484C122.981 16.6484 125.436 17.2655 127.495 18.4998C129.566 19.734 131.157 21.4606 132.265 23.6795C133.387 25.8985 133.948 28.4786 133.948 31.4197C133.948 34.3608 133.387 36.9408 132.265 39.1598C131.157 41.3788 129.566 43.1054 127.495 44.3396C125.436 45.5738 122.981 46.1909 120.131 46.1909ZM120.131 41.149C121.939 41.1753 123.443 40.7879 124.644 39.987C125.845 39.1861 126.742 38.0503 127.336 36.5798C127.943 35.1092 128.247 33.3892 128.247 31.4197C128.247 29.4502 127.943 27.7433 127.336 26.299C126.742 24.8547 125.845 23.7321 124.644 22.9311C123.443 22.1302 121.939 21.7166 120.131 21.6904C118.323 21.6641 116.818 22.0514 115.617 22.8524C114.417 23.6533 113.513 24.789 112.905 26.2596C112.312 27.7302 112.015 29.4502 112.015 31.4197C112.015 33.3892 112.312 35.0961 112.905 36.5404C113.513 37.9847 114.417 39.1073 115.617 39.9082C116.818 40.7092 118.323 41.1227 120.131 41.149Z"
            fill="currentColor" />
        <path
            d="M142.837 45.6001L134.127 17.2393H139.67L146.796 40.5582L154.041 17.2393H159.584L150.874 45.6001H142.837Z"
            fill="currentColor" />
        <path
            d="M157.803 45.6001L166.513 17.2393H174.55L183.26 45.6001H177.717L169.957 20.5874H170.986L163.346 45.6001H157.803ZM163.029 39.6916V34.6891H178.073V39.6916H163.029Z"
            fill="currentColor" />
    </g>
    <defs>
        <clipPath id="clip0_188_15545">
            <rect width="182.283" height="62.8564" fill="white"
                transform="translate(0.976074 -0.00830078)" />
        </clipPath>
        <clipPath id="clip1_188_15545">
            <rect width="62.8564" height="62.8564" fill="white"
                transform="translate(0.976074 -0.00830078)" />
        </clipPath>
    </defs>
</svg>