<svg data-v-b1d97862="" xmlns="http://www.w3.org/2000/svg" viewBox="0 0 17 15" aria-hidden="true"
    role="img" class="icon icon-translation sm">
    <path
        d="M10.39 2.457a2.01 2.01 0 01.344.439h4.446c1.004 0 1.82.904 1.82 1.996V12.9c0 .53-.192 1.037-.534 1.41s-.805.585-1.288.585H1.822c-.483 0-.947-.2-1.288-.585S0 13.43 0 12.9V4.892C0 3.8.816 2.896 1.822 2.896h4.446a2.01 2.01 0 01.679-.7L5.177.427A.25.25 0 115.53.073l1.904 1.904A2 2 0 018 1.896h1a1.99 1.99 0 01.984.258L12.066.073a.25.25 0 11.354.354l-2.03 2.03zm.503 6.62a.2.2 0 000-.358l-3.603-1.8a.2.2 0 00-.29.177V10.7a.2.2 0 00.289.179l3.603-1.8z"></path>
</svg>