<svg width="24" height="24" viewBox="0 0 25 25" fill="none" xmlns="http://www.w3.org/2000/svg">
    <path
        d="M8.44426 13.8774C8.42976 13.8908 8.41661 13.9057 8.405 13.9217C8.06875 14.5594 7.61028 15.1369 7.43424 15.8537C7.38864 16.0399 7.36141 16.2337 7.33355 16.4237C7.31304 16.6231 7.20125 16.8018 7.03086 16.9075C6.95231 16.9646 6.89026 17.0415 6.85102 17.1304C6.763 17.3177 6.63883 17.4858 6.48563 17.6249C6.2621 17.8301 6.12595 18.1087 6.17534 18.419C6.22157 18.7103 6.14305 18.9636 6.03983 19.2194C5.84542 19.7001 5.64722 20.1794 5.44964 20.6588C5.37809 20.8317 5.28183 20.9811 5.08743 21.0388C5.04983 21.0543 5.01906 21.0829 5.00067 21.1192C4.70242 21.6891 4.5346 22.2869 4.64226 22.936C4.66189 23.0525 4.71951 23.1627 4.73788 23.2792C4.76764 23.4691 4.77967 23.6636 4.8012 23.8675C4.23128 23.9251 3.71265 23.9859 3.19276 23.8637C3.12943 23.8485 3.03825 23.7661 3.03381 23.7098C3.01355 23.4483 2.97366 23.1753 3.02558 22.9239C3.16173 22.2628 3.3422 21.6112 3.50242 20.9552C3.51865 20.9119 3.52043 20.8646 3.50748 20.8203C3.30168 20.4498 3.37703 20.0902 3.53914 19.733C3.57813 19.6478 3.62521 19.5666 3.67972 19.4905C3.7971 19.3312 3.86594 19.1414 3.87793 18.944C3.91909 18.3025 4.27497 17.8041 4.61503 17.2874C4.79044 17.0227 4.90885 16.7175 5.04627 16.4306C5.06443 16.3812 5.06643 16.3273 5.05197 16.2767C4.92848 15.7784 5.0716 15.2958 5.13492 14.8089C5.17735 14.4847 5.23941 14.1623 5.29007 13.8394C5.2964 13.8008 5.30273 13.745 5.28183 13.7216C5.11656 13.5367 5.15519 13.2999 5.11212 13.0846C5.10664 13.059 5.10839 13.0325 5.11719 13.0079C5.16848 12.8813 5.22484 12.7945 5.09883 12.6426C4.94748 12.4602 5.21281 12.0448 5.47877 12.0182C5.49967 11.231 5.22928 10.461 5.31223 9.6492C5.38315 9.54218 5.66748 9.45353 5.85112 9.34398C5.62442 9.29142 5.42305 9.23569 5.21788 9.2015C5.09883 9.18187 5.05133 9.11981 5.0583 9.01532C5.0697 8.83421 5.09376 8.65437 5.11086 8.4739C5.15962 7.95147 5.21408 7.42904 5.25017 6.90598C5.25967 6.7711 5.30716 6.71981 5.42811 6.70968C5.58326 6.69701 5.73904 6.68688 5.89418 6.67168C5.96131 6.66535 6.02716 6.64762 6.09366 6.63875C6.21081 6.62292 6.23614 6.5653 6.2203 6.44878C6.13102 5.67749 6.12975 4.91189 6.41851 4.17289C6.64015 3.60297 6.95614 3.10651 7.53366 2.84941C7.75528 2.76077 7.99154 2.71438 8.23023 2.71263C8.37017 2.70756 8.51455 2.80382 8.69629 2.86841C8.78938 2.82472 8.82294 2.74176 8.75962 2.57712C8.4183 1.67537 8.87107 0.550731 9.72278 0.167618C10.28 -0.0856805 10.8208 -0.053385 11.3439 0.274636C11.5282 0.39052 11.6605 0.48424 11.8214 0.591259C11.9797 0.648251 12.069 0.772367 12.0455 0.903449C12.0367 0.953475 12.0728 0.960441 12.0918 1.0111C12.2253 1.33451 12.28 1.68506 12.2513 2.03379C12.2235 2.30229 12.0911 2.47136 11.8239 2.51126C11.6567 2.53596 11.608 2.61638 11.6339 2.77342C11.653 2.88094 11.664 2.98974 11.6668 3.09891C11.6706 3.22556 11.7346 3.26482 11.8461 3.24202C12.0031 3.20973 12.1595 3.1711 12.3159 3.13564C12.4355 3.10147 12.5574 3.07607 12.6807 3.05965C12.7769 3.05268 12.8004 3.00519 12.8175 2.9292C12.8529 2.76836 12.8928 2.60878 12.9314 2.4492C12.946 2.4492 13.0264 2.4492 13.041 2.4492C13.0353 2.54862 13.0271 2.62904 13.0264 2.7196C13.0264 2.84118 13.0733 2.9026 13.1904 2.90957C13.3076 2.91654 13.3652 2.96783 13.3462 3.09954H18.3837V3.32371L18.5509 3.34334V2.43337L18.6997 2.41501C18.7985 2.70377 18.5965 3.04065 18.8643 3.30155L18.991 3.20213C19.1176 3.31865 19.0397 3.46429 19.0467 3.60804C19.5071 3.60804 19.9744 3.67136 20.4151 3.58778C20.7615 3.52445 21.0813 3.6682 21.4283 3.55041L21.4125 3.89173C21.1345 3.90693 20.8426 3.99559 20.6045 3.92023C20.1428 3.77522 19.6901 3.85691 19.2329 3.85057C19.1619 3.85057 19.091 3.88667 19.0188 3.88857C18.8353 3.89747 18.6513 3.8875 18.4698 3.8588C18.4628 3.86514 18.4502 3.87084 18.4489 3.8778C18.4077 4.13807 18.4077 4.13807 18.1418 4.13807C17.5953 4.13807 17.0488 4.13807 16.5023 4.13807C16.3082 4.13291 16.1268 4.23419 16.0293 4.40213C15.9175 4.55766 15.783 4.69555 15.6303 4.81121C15.5347 4.8891 15.4815 4.96508 15.5037 5.08477C15.5569 5.37036 15.6126 5.65469 15.6671 5.94092C15.6797 6.00424 15.693 6.07263 15.7076 6.14735C15.6708 6.1672 15.6317 6.18231 15.5911 6.19231C15.3625 6.21638 15.2656 6.34936 15.2396 6.57226C15.2142 6.76798 15.1765 6.96192 15.1269 7.15295C15.0798 7.34749 14.9593 7.5163 14.7906 7.62408C14.6809 7.70291 14.5762 7.78857 14.4772 7.88055C14.3176 8.02049 13.8275 8.13384 13.6217 8.07052C13.1847 7.99833 12.7915 7.80899 12.4052 7.60192C12.1766 7.4797 11.9493 7.35432 11.7086 7.22197L11.5763 7.7691C12.0234 7.96983 12.1323 8.14144 12.107 8.66577C12.0816 9.1901 12.062 9.70619 11.9911 10.2198C11.9569 10.4674 11.8188 10.7036 11.7067 10.9353C11.6801 10.9904 11.5731 11.024 11.4984 11.0341C11.4258 11.0348 11.3539 11.0199 11.2875 10.9904C11.0881 10.9271 10.9449 11.0493 10.9804 11.2627C11 11.3805 11.0285 11.497 11.0488 11.6148C11.0753 11.7737 11.1498 11.9206 11.2622 12.0359C12.0082 12.8351 12.4546 13.809 12.8453 14.8095C12.9017 14.9552 12.9593 15.0995 13.0087 15.2477C13.0581 15.3959 13.1049 15.5327 13.2677 15.5954C13.2962 15.6061 13.3139 15.6682 13.3203 15.7094C13.3443 15.8664 13.3367 16.0291 13.4545 16.1634C13.4855 16.1982 13.4779 16.2717 13.4798 16.3274C13.5014 17.1107 13.388 17.8827 13.2899 18.6565C13.2601 18.8876 13.3082 19.1302 13.3348 19.3657C13.3652 19.6304 13.3475 19.8818 13.2126 20.1193C13.1751 20.1813 13.1534 20.2515 13.1493 20.3238C13.1493 20.6981 13.1448 21.0729 13.174 21.4453C13.1841 21.5719 13.2702 21.7075 13.3519 21.8164C13.4924 22.0102 13.6494 22.1916 13.8211 22.3584C13.9532 22.4717 14.0997 22.5669 14.2568 22.6415C14.4095 22.7191 14.5673 22.7862 14.7292 22.8422C14.9224 22.9125 14.9825 23.0544 14.973 23.2431C14.9686 23.3203 14.9585 23.3976 14.949 23.4932C14.7894 23.5078 14.6355 23.5325 14.4816 23.5337C13.8484 23.5382 13.2151 23.585 12.5971 23.3735C12.3742 23.2975 12.1057 23.3647 11.8594 23.345C11.6971 23.3293 11.5374 23.2938 11.3838 23.2393C11.3445 23.226 11.304 23.1171 11.3167 23.0639C11.4135 22.6453 11.5389 22.2324 11.6213 21.8113C11.6624 21.6011 11.639 21.3769 11.6333 21.1591C11.627 20.926 11.608 20.693 11.5921 20.4625C11.5921 20.4334 11.5839 20.3897 11.5643 20.3789C11.4211 20.2979 11.423 20.163 11.4211 20.0275C11.4201 19.9963 11.4141 19.9655 11.4034 19.9363C11.1887 19.3227 11.2134 18.6755 11.1387 18.0422C11.1242 17.9156 11.1849 17.7655 11.2546 17.6534C11.3221 17.5575 11.361 17.4444 11.3667 17.3273C11.3667 17.2007 11.4047 17.0689 11.4034 16.9398C11.4024 16.8387 11.3809 16.739 11.3401 16.6466C11.2685 16.4895 11.1704 16.4002 10.9601 16.4484C10.7227 16.5028 10.5169 16.3983 10.3738 16.1837C10.0274 15.6644 9.67719 15.1502 9.32827 14.6303C9.27065 14.5436 9.20796 14.4923 9.10157 14.5037C8.8584 14.5334 8.71023 14.4118 8.61207 14.2035C8.55951 14.0933 8.50189 13.9895 8.44426 13.8774ZM13.83 5.7845C13.9397 5.67444 14.0437 5.55883 14.1416 5.43812C14.279 5.24815 14.4322 5.06514 14.5152 4.85363C14.5595 4.74028 14.5038 4.55221 14.4272 4.44456C14.3942 4.3977 14.1859 4.44962 14.0725 4.49458C13.9592 4.53954 13.9339 4.64466 14.0289 4.75865C13.8819 4.84034 13.7496 4.90999 13.6217 4.98662C13.5394 5.03601 13.4608 5.09427 13.5223 5.21015C13.6191 5.39126 13.7148 5.573 13.83 5.78387V5.7845Z"
        fill="white" />
</svg>