<svg width="24" height="24" viewBox="0 0 25 25" fill="none" xmlns="http://www.w3.org/2000/svg">
    <path
        d="M0.658723 0C8.40219 0 15.6131 0.017037 23.3595 0.017037C23.7002 0.017037 23.9278 0.358519 23.9278 0.697037C23.9278 8.41704 23.9059 15.3859 23.9052 23.1059C23.9052 23.6696 23.4463 23.8904 23.0648 23.8904C15.3381 23.8904 8.37447 23.9016 0.647052 23.9016C0.209362 23.9074 0 23.5541 0 23.2215C0 15.4674 0.0167781 8.39259 0.0167781 0.639259C0.0254479 0.28502 0.309765 0.00189259 0.658723 0ZM2.49994 4.84148C3.04997 5.43407 3.58906 6.00963 4.12815 6.58741L11.9424 14.9489C13.5234 16.6407 15.1057 18.3311 16.6891 20.02C16.7803 20.122 16.9036 20.1885 17.0378 20.2081C17.8716 20.237 18.7069 20.2385 19.5407 20.2607C19.723 20.2659 19.7989 20.2007 19.8529 20.0274C20.2906 18.6116 20.7358 17.198 21.1886 15.7867C21.2542 15.5822 21.2134 15.4748 21.039 15.3548C18.9673 13.9277 16.899 12.4956 14.834 11.0585C11.5591 8.78691 8.28377 6.51728 5.0079 4.24963C4.90869 4.18148 4.79416 4.10148 4.68182 4.09407C3.90201 4.03333 3.25131 4.42741 2.57653 4.73407C2.55027 4.74741 2.53714 4.78963 2.49994 4.84148ZM9.31477 19.4681L4.49216 14.7037C3.94067 15.9785 3.40669 17.2044 2.88219 18.4341C2.79538 18.6385 2.9172 18.983 3.09666 19.1281C3.62675 19.5558 4.15805 19.9822 4.69058 20.4074C4.75404 20.4578 4.83137 20.5274 4.90067 20.5259C5.38432 20.5133 5.88328 20.5541 6.34578 20.443C7.04973 20.2748 7.73179 19.9985 8.41824 19.7667L9.31477 19.4681ZM14.2286 5.27407L18.9119 8.9037C19.1117 7.69852 19.3036 6.56148 19.4809 5.42222C19.4933 5.3437 19.4181 5.21778 19.3474 5.16519C18.8951 4.82889 18.4282 4.51185 17.9745 4.17704C17.8496 4.0778 17.6805 4.05805 17.5368 4.12593C16.7584 4.40296 15.9757 4.66667 15.1951 4.9363C14.896 5.03852 14.5948 5.14593 14.2286 5.27407Z"
        fill="white" />
</svg>