<svg data-v-579dbd12="" xmlns="http://www.w3.org/2000/svg" width="11" height="11"
    viewBox="0 0 11 11" aria-hidden="true" role="img"
    class="icon icon-close-open-bets sm toggle-all-icon active toggle-all-icon active">
    <path fill="#FFF"
        d="M10.546 5.447a.85.85 0 01-.01 1.118l-.083.08-4.205 3.6a.85.85 0 01-1.007.074l-.1-.074-4.195-3.6a.85.85 0 011.015-1.36l.093.07L5.696 8.48l3.651-3.126a.85.85 0 011.199.093zm0-5a.85.85 0 01-.01 1.118l-.083.08-4.205 3.6a.85.85 0 01-1.007.074l-.1-.074-4.195-3.6A.85.85 0 011.961.285l.093.07L5.696 3.48 9.347.354a.85.85 0 011.199.093z"></path>
</svg>