<svg viewBox="0 0 25 25" fill="none" xmlns="http://www.w3.org/2000/svg" aria-hidden="true">
    <g class="interac_svg__mono" fill="#4A5370">
        <path
            d="M22.562.426a2.013 2.013 0 012.012 2.012v20.124a2.012 2.012 0 01-2.012 2.012H2.438a2.011 2.011 0 01-2.012-2.012V2.438A2.012 2.012 0 012.438.426h20.124zm0-.426H2.438A2.441 2.441 0 000 2.438v20.124A2.441 2.441 0 002.438 25h20.124A2.44 2.44 0 0025 22.562V2.438A2.441 2.441 0 0022.562 0"></path>
        <path fill-rule="evenodd" clip-rule="evenodd"
            d="M22.561.426H2.438A2.012 2.012 0 00.426 2.438v20.125a2.012 2.012 0 002.012 2.012H22.56a2.012 2.012 0 002.013-2.013V2.438A2.013 2.013 0 0022.56.426zm-8.654 8.011l.002 4.324 1.194-.278-.001-2.387c0-.549.21-.908.627-1.073.187-.079.388-.12.591-.123V7.797a.65.65 0 00-.314.021c-.678.173-.97.918-.97.918V8.17l-1.13.267zm-5.947 5.73s-.184-.275-.184-1.248v-2.153l-.58.138v-.886l.581-.138v-.967l1.2-.283v.967l.848-.202v.886l-.848.201v2.192c0 .997.265 1.189.265 1.189l-1.282.304zm2.335-4.332c-.235.43-.344.991-.344 1.76 0 1.26.381 2.134 1.812 1.794 1.51-.357 1.63-1.386 1.64-1.8.002-.1-.001-.19-.001-.19l-1.086.26s-.003.128-.008.178c-.032.31-.143.56-.543.644-.462.098-.615-.248-.615-.978v-.038l2.32-.545s-.003-.182.004-.556c.019-1.045-.456-1.824-1.773-1.525-.668.153-1.126.485-1.406.996zm.86.899c.009-.625.21-1.002.594-1.09.427-.097.572.152.574.624 0 .097 0 .16-.002.188l-1.166.278zm9.227-1.668c-.045-1.316.296-2.361 1.765-2.694.937-.213 1.292.03 1.473.266.173.225.24.528.24.952v.078l-1.149.273v-.16c0-.503-.14-.695-.505-.603-.435.11-.61.522-.61 1.342V8.903c0 .833.115 1.215.616 1.11.434-.09.494-.471.5-.806.002-.052.004-.22.004-.22l1.147-.272s.002.085.002.18c-.003 1.093-.58 1.781-1.659 2.033-1.487.348-1.778-.511-1.824-1.862zm-2.504.16c-.883.366-1.47.682-1.47 1.684 0 .736.46 1.274 1.326 1.07.826-.195 1.065-.798 1.065-.798.038.135.087.266.147.393l1.093-.259s-.172-.136-.172-1.062V8.34c-.001-.808-.396-1.328-1.581-1.055-.912.21-1.44.614-1.618 1.213a2.216 2.216 0 00-.077.658l1.114-.263a2.055 2.055 0 01.007-.222.597.597 0 01.479-.566c.395-.1.507.105.502.345-.003.286-.02.449-.815.777zm.226.657c.203-.098.397-.212.581-.34v.602c0 .458-.245.788-.599.878-.33.081-.511-.111-.511-.404 0-.339.165-.558.529-.736zM1.685 17.198a.695.695 0 01-.581-1.072l.007-.01.014-.003 1.632-.385v1.24l-.026.005c-.37.09-.812.19-.904.21a.68.68 0 01-.142.015zm-.49 1.383a.693.693 0 00.632.19c.092-.019.534-.122.904-.21l.026-.007v-1.24l-1.632.386-.014.003-.007.012a.693.693 0 00.092.866zm.49 1.791a.693.693 0 01-.581-1.07l.007-.012 1.646-.388v1.24l-.026.007c-.39.094-.825.192-.904.21a.716.716 0 01-.142.013zm-.193-11.63v6.937l1.265-.3V8.445l-1.265.299zm3.15 6.347a.78.78 0 00-1.56 0l.001 6.482a2.115 2.115 0 002.111 2.113l2.209-.003v-2.704l.001-3.016a1.02 1.02 0 00-.454-.85l-1.968-1.337v3.035a.168.168 0 11-.336 0v-.435l-.004-3.285zm.396-4.525c.194-.15.419-.256.658-.312.9-.211 1.19.314 1.19 1.067v3.102l-1.199.281V11.77c0-.46-.216-.551-.473-.495-.343.076-.582.46-.582.942v2.01a1.165 1.165 0 00-1.199-.21l-.001-3.113 1.138-.27v.488c.114-.217.274-.408.468-.558z"></path>
    </g>
    <g class="interac_svg__color">
        <path
            d="M2.438.426H22.56a2.012 2.012 0 012.013 2.012v20.124a2.012 2.012 0 01-2.013 2.013H2.438a2.012 2.012 0 01-2.012-2.012V2.438A2.012 2.012 0 012.438.426z"
            fill="#FDB913"></path>
        <path
            d="M22.562.426a2.013 2.013 0 012.012 2.012v20.124a2.012 2.012 0 01-2.012 2.012H2.438a2.011 2.011 0 01-2.012-2.012V2.438A2.012 2.012 0 012.438.426h20.124zm0-.426H2.438A2.44 2.44 0 000 2.438v20.124A2.441 2.441 0 002.438 25h20.124A2.44 2.44 0 0025 22.562V2.438A2.44 2.44 0 0022.562 0"
            fill="#FDB913"></path>
        <path
            d="M13.909 12.761l-.002-4.324 1.129-.267v.566s.292-.745.97-.918a.65.65 0 01.314-.021V8.9a1.581 1.581 0 00-.591.123c-.417.165-.627.524-.627 1.073v2.387l-1.193.278zM7.96 14.167s-.184-.275-.184-1.248v-2.153l-.58.138v-.886l.581-.138v-.967l1.2-.283v.967l.848-.202v.886l-.848.201v2.192c0 .997.265 1.189.265 1.189l-1.282.304zM9.95 11.595c0-.769.11-1.33.345-1.76.28-.51.738-.843 1.406-.996 1.317-.299 1.792.48 1.774 1.525-.008.374-.006.556-.006.556l-2.32.545v.038c0 .73.154 1.076.617.978.4-.084.51-.335.542-.644.005-.05.008-.177.008-.177l1.086-.26s.003.088.001.188c-.01.415-.13 1.444-1.64 1.801-1.43.34-1.812-.534-1.812-1.794zm1.8-1.95c-.385.087-.586.464-.595 1.089l1.167-.278c.002-.028.002-.09.002-.188-.002-.472-.148-.72-.575-.623zM20.382 9.066c-.045-1.316.296-2.361 1.765-2.694.937-.213 1.292.03 1.473.266.173.225.24.528.24.952v.078l-1.149.273v-.16c0-.503-.14-.695-.505-.603-.435.11-.61.522-.61 1.342v.383c0 .833.115 1.215.616 1.11.434-.09.494-.471.5-.806.002-.052.004-.22.004-.22l1.147-.272s.002.085.002.18c-.003 1.093-.58 1.781-1.659 2.033-1.487.348-1.778-.511-1.824-1.862zM16.409 10.91c0-1.002.586-1.318 1.47-1.684.793-.328.81-.491.814-.777.005-.24-.107-.446-.502-.345a.597.597 0 00-.479.566 2.055 2.055 0 00-.007.222l-1.114.263a2.217 2.217 0 01.077-.658c.178-.6.706-1.002 1.618-1.213 1.185-.273 1.58.247 1.581 1.055v1.915c0 .927.172 1.062.172 1.062l-1.093.259a2.38 2.38 0 01-.147-.393s-.24.603-1.064.797c-.867.205-1.326-.333-1.326-1.07zm2.276-1.368c-.184.13-.378.243-.581.34-.364.179-.53.398-.53.737 0 .293.182.485.512.404.354-.09.6-.42.6-.878v-.603zM1.685 17.198a.695.695 0 01-.581-1.072l.007-.01.014-.003 1.632-.385v1.24l-.026.005c-.37.09-.812.19-.904.21a.68.68 0 01-.142.015zM1.685 18.784a.693.693 0 01-.581-1.07l.007-.011.014-.003 1.632-.386v1.24l-.026.007c-.37.088-.812.191-.904.21a.739.739 0 01-.142.012zM1.685 20.372a.693.693 0 01-.581-1.07l.007-.012 1.646-.388v1.24l-.026.007c-.39.094-.825.192-.904.21a.716.716 0 01-.142.013zM1.493 15.679V8.743l1.264-.299v6.936l-1.264.299zM4.642 15.089a.78.78 0 00-1.56 0l.001 6.482a2.115 2.115 0 002.111 2.113l2.209-.003v-2.704l.001-3.016a1.021 1.021 0 00-.454-.85l-1.968-1.337v3.035a.168.168 0 11-.336 0l-.004-3.72zM5.696 10.252a1.707 1.707 0 00-1.126.87v-.487l-1.138.27.001 3.112a1.165 1.165 0 011.199.21v-2.01c0-.482.24-.866.582-.942.257-.056.472.036.472.495l.001 2.932 1.2-.281v-3.102c0-.753-.29-1.278-1.191-1.067z"
            fill="#231F20"></path>
    </g>
</svg>