<svg version="1.2" xmlns="http://www.w3.org/2000/svg" viewBox="0 0 1531 351" width="1531" height="351">
	<title>Logo (49)-svg</title>
	<style>
		.s0 { fill: #f14635 } 
		.s1 { fill: #000000 } 
	</style>
	<path id="Layer" fill-rule="evenodd" class="s0" d="m163.4 191.8c-11.6 9.9-11.4 37.6-11.2 69.7v9.1l0.1 3.5c0.1 30.3 0.5 56.3 7.7 67.9 2.3 3.9 6.8 6.7 12.8 8.4 1.5 0.1 3 0.1 4.6 0.1 14.7 0 29-1.8 42.7-5.2 5.6-2.7 9.7-6 11.1-9.4 0.9-2.2 1.3-6.2 1.3-11.5 0-21-6.2-61.2-9.2-80.6l-1.5-10.1-0.3-2-0.4-3c-2.5-17.2-6.8-35.8-38.1-40.6-8.7-1.4-15.1-0.1-19.6 3.7zm-55.5 130.2c1.1 8.1 2.7 14.2 4.9 18.2q4.8 1.9 9.8 3.6c3-2.6 4.8-9.9 4.2-27.5-0.9-25.3-5.2-58.7-12-58.3-7.3 0.4-10.1 38.5-6.9 64zm148.7-62.7c-8.1 4.1-5 50.7 3.5 65.6 0.9 1.5 2.7 1.7 4.7 1.4q9.6-5.8 18.3-12.8c0.7-1.5 1.3-3.3 1.7-5.6 1.6-8.1-17.5-53.7-28.2-48.6zm-256.6-85.4c0 58.1 28.9 109.5 73.1 140.9 1.2-1.3 2.1-4.9 2.8-7.9l0.2-1.2 1-4.2c3.6-16.9 4.3-33.4 2.3-52.9-1.2-12.7-3.2-20.2-5-26.8-1.9-7.1-3.5-13.3-3.3-22.9 0.1-8.6 1.9-14.6 3.8-21 2.3-7.2 4.8-15.4 5.1-29.6 1-27.6 3.8-34.5 12.1-42.5 8.3-8 10.8-11.3 10.8-17.2 0-5.8-7.8-19.2 5.9-33.3 8.9-9 17.4-12.2 23.6-12.2 3.5 0 6.2 1 7.8 2.6 4.4 4.6 3.1 13.5-5.6 25.3-8.8 11.8-8.6 17-8 19.7 0.5 2.7 3.2 6.4 8.3 10.4 4 3.2 8.5 6.8 11.5 12 5.5 9.9 8.7 19.4 13.2 32.4l1.2 3.7 0.6 1.4c4.3 10.3 14.8 14 32.9 14 18.7 0 38.6-12.2 38.6-21.6 0-9.3-3.8-10.5-3.8-18.5 0-8 12-31.1 30.2-31.1 9.2 0 14 6.7 9.5 15.9-4.3 9.1-13.2 22.2-13.2 28 0 10.6 15.9 2.4 25.9-5.8 10.2-8.2 12.5-10.5 19.4-22.7 4.3-7.6 10.4-9 14.4-7.1 4.5 2.3 7.3 8.8 3.3 18.2-3.2 7.3-11.8 16.6-20.9 26.4-12.1 13.1-25.8 28-25.8 37.5 0 48.5 27.5 90.9 30.6 95.5 3.1 4.6 4.8 6.2 5.8 6.6 25.7-30 41.3-68.8 41.4-111.3v-1.5-3.2c-2.1-93.9-79.6-169.4-174.8-169.4-96.6 0-174.9 77.6-174.9 173.4z"/>
	<path id="Layer" fill-rule="evenodd" class="s1" d="m1017.6 120.5q25.9 0 40.3 18.4 14.4 18.4 14.4 50.6v2q0 31.4-14.7 50.2-14.7 18.7-39.7 18.7-19.4 0-31.8-13.6v68.1h-43.8v-191.9h40.9l1.3 12.5q12.6-15 33.1-15zm-304.9 0q26.8 0 42.4 12.6 15.6 12.6 16 34.5v59.8q0.2 18.6 5.9 28.4v2.1h-43.7q-2.3-4.1-4.2-12.1-12 14.6-33.7 14.6-19.8 0-33.7-11.5-13.9-11.5-13.9-29 0-22 16.9-33.2 16.8-11.2 49-11.2h13.5v-7.1q0-18.6-16.7-18.6-15.6 0-15.6 14.7h-43.7q0-19.6 17.3-31.8 17.3-12.2 44.2-12.2zm142.3 0q27.8 0 44.6 12.1 16.9 12.1 16.9 31.8h-43.8q0-16.2-17.8-16.2-6.9 0-11.6 3.7-4.6 3.6-4.6 9.1 0 5.6 5.7 9.1 5.7 3.5 18.2 5.8 12.5 2.2 22 5.3 31.7 10.5 31.7 37.6 0 18.4-17.1 30-17.1 11.6-44.2 11.6-18 0-32.2-6.2-14.1-6.2-22-17-7.9-10.7-7.9-22.5h40.8q0.3 9.3 6.5 13.6 6.2 4.3 16 4.3 8.9 0 13.4-3.5 4.5-3.5 4.5-9.1 0-5.3-5.9-8.6-5.8-3.2-22.1-6.7-16.4-3.5-27-9.2-10.7-5.7-16.3-13.8-5.5-8.1-5.5-18.6 0-18.5 15.9-30.6 16-12 41.8-12zm-328.5-54.4v90.3l61.9-90.3h56.3l-69.2 90.6 63.9 101.2h-54l-40.2-67.6-18.7 19.7v47.9h-45.6v-191.8zm572.8 56.9h43.8v134.9h-43.8zm429.4 0v22.7l-62.5 79.9h64v32.4h-119.3v-23.5l62.3-79h-73.4l29.3-32.5zm-327 133.2c-12 0-21.7-9.3-21.7-20.8 0-11.6 9.7-20.9 21.7-20.9 11.9 0 21.6 9.3 21.6 20.9 0 11.5-9.7 20.8-21.6 20.8zm101.5-190v100.8l4.4-5.6 33.1-39h52.5l-49.3 54.9 52.6 78.7h-50.2l-30.7-49.8-12.4 11.8v38h-43.8v-189.8zm-576.1 131.8h-12.7q-22.8 0-22.8 19.7 0 5.7 4 9.3 4 3.6 10.2 3.6 8.2 0 13.6-3.4 5.4-3.4 7.7-7.6zm279.6-45q-15.5 0-20.7 10.7v53.1q5.7 11.2 21 11.2 20.9 0 21.5-34.6v-4.5q0-35.9-21.8-35.9zm115-43.1c-12 0-21.7-9.8-21.7-21.9 0-12.1 9.7-21.9 21.7-21.9 11.9 0 21.6 9.8 21.6 21.9 0 12.1-9.7 21.9-21.6 21.9z"/>
</svg>