<?xml version="1.0" encoding="iso-8859-1"?>
<svg version="1.1" id="&#x421;&#x43B;&#x43E;&#x439;_1"
	xmlns="http://www.w3.org/2000/svg" xmlns:xlink="http://www.w3.org/1999/xlink" x="0px" y="0px"
	viewBox="0 0 24 24"
	style="enable-background:new 0 0 24 24;" xml:space="preserve">
<g>
	<path d="M21,12c0,2.481-1.009,4.731-2.639,6.361l1.414,1.414C21.766,17.783,23,15.033,23,12s-1.234-5.783-3.225-7.775l-1.414,1.414
		C19.991,7.269,21,9.519,21,12z"/>
	<path d="M3,12c0-2.481,1.009-4.731,2.639-6.361L4.225,4.225C2.234,6.217,1,8.967,1,12s1.234,5.783,3.225,7.775l1.414-1.414
		C4.009,16.731,3,14.481,3,12z"/>
	<path d="M16.947,7.053l-1.414,1.414C16.439,9.372,17,10.622,17,12s-0.561,2.628-1.466,3.534l1.414,1.414
		C18.215,15.68,19,13.93,19,12S18.215,8.32,16.947,7.053z"/>
	<path d="M7.053,16.947l1.414-1.414C7.561,14.628,7,13.378,7,12s0.561-2.628,1.466-3.534L7.053,7.053C5.785,8.32,5,10.07,5,12
		S5.785,15.68,7.053,16.947z"/>
</g>
<g>
	<circle cx="12" cy="12" r="3"/>
</g>
</svg>