<svg xmlns="http://www.w3.org/2000/svg" xmlns:xlink="http://www.w3.org/1999/xlink"
    xmlns:xodm="http://www.corel.com/coreldraw/odm/2003" xml:space="preserve" width="50px"
    height="30px" version="1.1"
    style="shape-rendering:geometricPrecision; text-rendering:geometricPrecision; image-rendering:optimizeQuality; fill-rule:evenodd; clip-rule:evenodd"
    viewBox="0 0 1806.26 272.16">
    <defs>
     <style type="text/css">
      <![CDATA[
       .fil1 {fill:#1F1B20;fill-rule:nonzero}
       .fil0 {fill:#089E4E;fill-rule:nonzero}
       .fil2 {fill:#108DE7;fill-rule:nonzero}
      ]]>
     </style>
    </defs>
    <g id="Слой_x0020_1">
     <metadata id="CorelCorpID_0Corel-Layer"/>
     <path class="fil0" d="M802.54 12.95l132.86 219.64c7.43,12.33 3.46,28.36 -8.88,35.8 -4.22,2.54 -8.87,3.75 -13.46,3.74l0 0.03 -266.1 0c-14.42,0 -26.11,-11.69 -26.11,-26.11 0,-5.42 1.65,-10.45 4.48,-14.62l132.34 -218.81c7.44,-12.33 23.47,-16.31 35.8,-8.87 3.89,2.34 6.94,5.53 9.07,9.2zm21.66 136.58l-44.19 -73.05 -86.77 143.46 173.54 0 -42.58 -70.41z"/>
     <polygon class="fil1" points="0,261.29 0,18.05 59.25,18.05 59.25,261.29 "/>
     <polygon class="fil1" points="110.99,261.18 110.99,17.13 187.22,17.13 243.38,199.15 296.28,17.13 375.39,17.13 375.39,261.18 324.04,261.18 323.85,76.57 269.76,261.18 216.37,261.18 162.53,76.56 162.34,261.18 "/>
     <polygon class="fil1" points="1294.68,17.5 1570.19,17.5 1570.19,63.8 1294.68,63.8 "/>
     <polygon class="fil1" points="1294.68,115.98 1570.19,115.98 1570.19,162.28 1294.68,162.28 "/>
     <polygon class="fil1" points="1294.68,214.45 1570.19,214.45 1570.19,260.76 1294.68,260.76 "/>
     <polygon class="fil1" points="1677.24,261.29 1677.24,62.37 1613.72,62.37 1613.72,18.05 1677.24,18.05 1736.49,18.05 1806.26,18.05 1806.26,62.37 1736.49,62.37 1736.49,261.29 "/>
     <path class="fil1" d="M424.5 17.13l90.26 0c17.92,0 31.21,0.81 39.98,2.44 8.83,1.68 16.66,5.11 23.59,10.28 6.94,5.23 12.72,12.14 17.34,20.8 4.62,8.66 6.94,18.42 6.94,29.17 0,11.61 -2.84,22.36 -8.52,32.06 -5.67,9.77 -13.39,17.03 -23.11,21.91 23.24,7.58 42.2,28.27 42.54,55.98 0.47,37.83 -24.42,65.46 -57.2,69.42 -7.56,0.91 -25.91,1.68 -54.96,1.68l-76.86 0 0 -243.74zm60.34 44.27l0 52.25 15.21 0c17.71,0 28.74,-0.31 33.05,-0.88 28.39,-3.7 29.86,-46.42 2.15,-50.5 -4.5,-0.67 -17.5,-0.87 -38.88,-0.87l-11.53 0zm48.26 96.21l-48.26 0 0 59.44 50.38 0c15.23,-1.79 26.71,-14.71 26.71,-30.04 0,-10.54 -5.42,-19.94 -13.75,-25.37 -6.28,-4.09 -7.92,-4.03 -15.08,-4.03z"/>
     <path class="fil1" d="M1064.34 17.13l90.26 0c17.92,0 31.21,0.81 39.98,2.44 8.83,1.68 16.66,5.11 23.59,10.28 6.94,5.23 12.72,12.14 17.34,20.8 4.62,8.66 6.93,18.42 6.93,29.17 0,11.61 -2.83,22.36 -8.51,32.06 -5.67,9.77 -13.39,17.03 -23.11,21.91 23.24,7.58 42.19,28.27 42.54,55.98 0.47,37.83 -24.42,65.46 -57.2,69.42 -7.56,0.91 -25.91,1.68 -54.96,1.68l-76.86 0 0 -243.74zm60.34 44.27l0 52.25 15.21 0c17.7,0 28.74,-0.31 33.05,-0.88 28.39,-3.7 29.86,-46.42 2.15,-50.5 -4.5,-0.67 -17.5,-0.87 -38.88,-0.87l-11.53 0zm48.26 96.21l-48.26 0 0 59.44 50.38 0c15.23,-1.79 26.71,-14.71 26.71,-30.04 0,-10.54 -5.42,-19.94 -13.75,-25.37 -6.28,-4.09 -7.92,-4.03 -15.08,-4.03z"/>
     <path class="fil2" d="M989.68 234.42c0,4.2 1.73,8.03 4.51,10.82 2.78,2.78 6.61,4.51 10.82,4.51 4.2,0 8.04,-1.73 10.82,-4.51 2.78,-2.79 4.51,-6.62 4.51,-10.82l5.22 0c0,5.63 -2.32,10.77 -6.04,14.49 -3.74,3.74 -8.88,6.06 -14.51,6.06 -5.64,0 -10.77,-2.32 -14.5,-6.04 -3.74,-3.74 -6.06,-8.88 -6.06,-14.51l5.23 0zm30.66 -4.71c0,-4.2 -1.73,-8.04 -4.51,-10.82 -2.78,-2.78 -6.62,-4.51 -10.82,-4.51 -4.21,0 -8.04,1.73 -10.82,4.51 -2.78,2.78 -4.51,6.62 -4.51,10.82l-5.23 0c0,-5.63 2.32,-10.77 6.05,-14.5 3.74,-3.73 8.87,-6.05 14.51,-6.05 5.63,0 10.77,2.32 14.5,6.04 3.73,3.74 6.05,8.88 6.05,14.51l-5.22 0zm-50.89 0c0,-9.78 4,-18.67 10.44,-25.11 6.45,-6.44 15.34,-10.45 25.12,-10.45 9.78,0 18.67,4 25.11,10.45 6.45,6.44 10.45,15.33 10.45,25.11l-5.23 0c0,-8.34 -3.41,-15.92 -8.91,-21.42 -5.5,-5.5 -13.09,-8.91 -21.42,-8.91 -8.35,0 -15.93,3.41 -21.42,8.9 -5.5,5.51 -8.92,13.09 -8.92,21.43l-5.22 0zm71.12 4.71c0,9.77 -4.01,18.66 -10.45,25.1 -6.44,6.45 -15.33,10.45 -25.11,10.45 -9.77,0 -18.66,-4 -25.11,-10.44 -6.45,-6.46 -10.45,-15.34 -10.45,-25.11l5.22 0c0,8.34 3.41,15.93 8.91,21.42 5.5,5.5 13.08,8.91 21.43,8.91 8.33,0 15.92,-3.41 21.42,-8.91 5.5,-5.49 8.91,-13.08 8.91,-21.42l5.23 0z"/>
    </g>
   </svg>