<svg width="84" height="18" viewBox="0 0 84 18" fill="none" xmlns="http://www.w3.org/2000/svg"
    aria-hidden="true">
    <g class="muchbetter_svg__color" clip-path="url(#muchbetter_svg__clip0)">
        <path
            d="M5.983 14.526a1.16 1.16 0 01-.963-.544L.332 5.902a1.156 1.156 0 01.419-1.548 1.156 1.156 0 011.548.418l4.689 8.037a1.156 1.156 0 01-.419 1.55c-.21.125-.377.167-.586.167z"
            fill="#F69220"></path>
        <path
            d="M17.788 10.13c0-.586-.21-1.13-.544-1.716-.503-.92-1.089-1.507-1.884-1.884-.67-.334-1.423-.502-2.177-.418.251-.544.419-1.089.46-1.675.084-.837-.209-1.59-.711-2.511a4.204 4.204 0 00-1.214-1.34c-.502-.293-1.005-.502-1.59-.544a6.64 6.64 0 00-1.8.126c-.21.042-.42.125-.629.167l-.25.126c-.377.125-1.34.67-1.675.879l-1.633.963H4.1a1.332 1.332 0 00-.46 1.758 1.261 1.261 0 001.716.46h.042l2.637-1.507a2.66 2.66 0 01.754-.251c.25-.042.502 0 .753.042.251.084.46.21.712.377.21.167.377.376.544.628.126.25.251.502.293.795.042.293.042.544 0 .795s-.126.46-.293.67c-.126.21-.335.377-.544.502l-1.59.963-.67.377-.42.251c-.585.335-.753 1.047-.418 1.633.21.376.628.586 1.047.586.209 0 .418-.042.586-.168l.879-.502 2.26-1.214c.252-.126.46-.21.712-.21.251 0 .502.042.712.126.25.084.46.21.67.377.209.167.376.377.543.628.126.251.21.502.252.753.042.252.042.544-.042.796-.042.25-.168.46-.335.711-.168.21-.377.377-.628.544l-3.893 2.22h-.21l-.71.418-1.382.753c-.586.335-.838 1.088-.503 1.675.21.418.628.67 1.089.67.209 0 .418-.043.586-.168l3.349-1.8 2.72-1.465a7.617 7.617 0 001.591-1.214c.46-.46.796-.963 1.005-1.465.251-.586.377-1.13.335-1.717zM52.448 12.307c-.25 0-.544 0-.753-.21-.21-.208-.21-.501-.21-.753V5.065c0-.25 0-.544.21-.753.21-.21.502-.21.753-.21h2.344c1.633 0 2.554.921 2.554 2.303 0 .92-.586 1.507-1.047 1.716.503.251 1.13.754 1.13 1.842 0 1.549-1.046 2.386-2.511 2.386h-2.47v-.042zm.67-6.781V7.41h1.59c.67 0 1.047-.377 1.047-.963s-.377-.963-1.046-.963h-1.591v.042zm1.674 5.358c.712 0 1.089-.46 1.089-1.005 0-.544-.335-1.004-1.089-1.004h-1.674v2.009h1.674zM59.983 9.754c0 .795.46 1.34 1.34 1.34.377 0 .753-.084 1.046-.335.251-.168.377-.21.544-.21.293 0 .587.293.587.628 0 .293-.252.544-.587.754-.418.293-.962.418-1.632.418-1.423 0-2.805-.628-2.805-3.098 0-1.967 1.047-3.097 2.637-3.097 1.633 0 2.554 1.172 2.638 2.679 0 .251-.042.502-.21.67-.209.209-.418.209-.67.209h-2.888v.042zm2.177-1.675c-.167-.376-.502-.628-1.005-.628-.502 0-.837.252-1.004.628-.084.21-.126.377-.126.67h2.302a2.606 2.606 0 00-.167-.67zM65.216 7.619h-.168c-.293 0-.377 0-.502-.084a.533.533 0 01-.293-.502c0-.21.084-.419.293-.502.125-.084.21-.084.502-.084h.168V5.65c0-.376 0-.502.083-.67a.74.74 0 01.67-.376c.293 0 .544.126.67.377.084.167.084.293.084.67v.795h.46c.293 0 .377 0 .502.084a.533.533 0 01.293.502c0 .21-.083.418-.292.502-.126.084-.21.084-.503.084h-.46v2.888c0 .293.083.503.502.545.21 0 .335.041.46.083.168.084.293.251.293.544 0 .252-.125.46-.292.545-.126.083-.335.083-.628.083h-.084c-1.256 0-1.758-.837-1.758-1.716V7.619zM69.276 7.619h-.167c-.293 0-.377 0-.503-.084a.533.533 0 01-.293-.502c0-.21.084-.419.293-.502.126-.084.21-.084.503-.084h.167V5.65c0-.376 0-.502.084-.67a.74.74 0 01.67-.376c.293 0 .544.126.67.377.083.167.083.293.083.67v.795h.46c.294 0 .377 0 .503.084a.533.533 0 01.293.502c0 .21-.084.418-.293.502-.126.084-.21.084-.502.084h-.46v2.888c0 .293.083.503.501.545.21 0 .335.041.46.083.168.084.294.251.294.544 0 .252-.126.46-.293.545-.126.083-.335.083-.628.083h-.084c-1.256 0-1.758-.837-1.758-1.716V7.619zM74.132 9.754c0 .795.46 1.34 1.34 1.34.376 0 .753-.084 1.046-.335.251-.168.377-.21.544-.21.293 0 .586.293.586.628 0 .293-.25.544-.586.754-.418.293-.963.418-1.632.418-1.424 0-2.805-.628-2.805-3.098 0-1.967 1.046-3.097 2.637-3.097 1.633 0 2.554 1.172 2.637 2.679 0 .251-.041.502-.209.67-.21.209-.418.209-.67.209h-2.888v.042zm2.177-1.675c-.168-.376-.503-.628-1.005-.628-.502 0-.837.252-1.005.628-.083.21-.125.377-.125.67h2.302c-.084-.293-.084-.46-.167-.67zM81.96 6.195c.46 0 .753.084 1.046.293.21.168.377.377.377.628 0 .21-.084.419-.21.544a.772.772 0 01-.502.21c-.167 0-.293-.042-.502-.168-.167-.083-.376-.167-.586-.167-.502 0-1.004.335-1.004 1.088v2.68c0 .376 0 .502-.084.67a.74.74 0 01-.67.376c-.335 0-.544-.126-.67-.377-.084-.167-.084-.293-.084-.67v-4.06c0-.377 0-.503.126-.67a.738.738 0 01.628-.335.67.67 0 01.46.168c.126.125.21.25.21.46.335-.335.879-.67 1.465-.67z"
            fill="#606060"></path>
        <path
            d="M26.578 10.13L25.24 7.493v3.684c0 .377 0 .502-.126.712a.813.813 0 01-.711.376.812.812 0 01-.712-.377c-.084-.209-.125-.334-.125-.711V5.023c0-.335.041-.586.25-.753a.796.796 0 01.545-.21c.21 0 .335.042.46.126.168.084.293.293.419.502l2.051 3.893 2.051-3.893c.084-.209.252-.376.419-.502a.844.844 0 01.46-.125c.21 0 .377.083.545.209.209.21.25.418.25.753v6.196c0 .376 0 .502-.125.711a.813.813 0 01-.712.377.813.813 0 01-.711-.377c-.084-.209-.126-.335-.126-.711V7.535l-1.214 2.595c-.209.377-.376.544-.753.544s-.586-.125-.796-.544z"
            fill="#F69220"></path>
        <path
            d="M30.262 12.349c-.335 0-.628-.167-.753-.419-.126-.209-.126-.335-.126-.711V7.786l-1.214 2.386c-.21.377-.377.586-.837.586-.419 0-.628-.209-.837-.586L25.28 7.786v3.433c0 .377 0 .502-.126.711-.125.252-.418.419-.753.419s-.628-.167-.754-.419c-.125-.209-.125-.376-.125-.711V5.023c0-.334.042-.586.25-.837a.76.76 0 01.587-.25c.21 0 .377.04.502.125.21.125.335.376.419.502l1.967 3.767 1.968-3.767c.083-.126.209-.377.418-.502.126-.084.293-.126.503-.126a.76.76 0 01.586.251c.209.21.25.46.25.837v6.196c0 .377 0 .502-.125.711.042.252-.25.419-.586.419zm-.753-5.107v3.977c0 .377 0 .502.084.67.125.209.376.334.627.334.293 0 .503-.125.628-.335.084-.167.084-.293.084-.67V5.024c0-.334-.042-.544-.21-.711a.693.693 0 00-.502-.21.954.954 0 00-.46.126c-.126.084-.251.251-.377.46L27.29 8.666 25.197 4.69c-.125-.21-.251-.377-.377-.46a.752.752 0 00-.46-.127.693.693 0 00-.502.21c-.168.167-.21.418-.21.711v6.196c0 .377 0 .502.084.67.126.209.377.334.628.334.293 0 .502-.125.628-.335.21-.167.21-.293.21-.67V7.243l1.464 2.846c.21.42.377.545.712.545.335 0 .502-.126.712-.544l1.423-2.847zM34.616 12.307c-.586 0-1.089-.209-1.423-.544-.503-.502-.628-1.046-.628-1.716V7.2c0-.376 0-.502.083-.67.126-.209.335-.334.628-.334s.544.125.628.335c.084.167.084.293.084.67v2.637c0 .795.502 1.088 1.005 1.088.46 0 1.004-.251 1.004-1.088V7.2c0-.376 0-.502.084-.67.125-.209.335-.334.628-.334s.544.125.628.335c.083.167.083.293.083.67v4.018c0 .377 0 .502-.125.67a.738.738 0 01-.628.335.67.67 0 01-.46-.168c-.126-.125-.168-.25-.21-.418-.251.46-.837.67-1.381.67z"
            fill="#F69220"></path>
        <path
            d="M34.616 12.391c-.586 0-1.089-.21-1.465-.544-.419-.419-.628-.963-.628-1.758V7.242c0-.377 0-.502.083-.711.126-.252.377-.377.712-.377.335 0 .586.125.712.377.083.167.083.334.083.711V9.88c0 .921.712 1.005.921 1.005.21 0 .921-.084.921-1.005V7.242c0-.377 0-.502.084-.711.126-.252.377-.377.712-.377.335 0 .586.125.711.377.084.167.084.334.084.711v4.019c0 .377 0 .502-.126.711a.813.813 0 01-.711.377.694.694 0 01-.503-.21c-.125-.083-.167-.208-.209-.334-.293.377-.837.586-1.381.586zM33.36 6.279c-.293 0-.502.126-.586.335-.084.126-.084.293-.084.628v2.847c0 .753.168 1.255.586 1.632.335.335.795.503 1.382.503.544 0 1.088-.21 1.465-.628l.083-.084.042.125c.042.21.084.294.21.42.125.083.25.167.418.167.251 0 .503-.126.586-.293.084-.168.084-.252.084-.628V7.284c0-.377 0-.502-.084-.628-.084-.21-.335-.335-.586-.335-.251 0-.502.126-.586.335-.084.126-.084.293-.084.628v2.637c0 .838-.544 1.13-1.046 1.13s-1.047-.293-1.047-1.13V7.284c0-.377 0-.502-.083-.628-.21-.251-.419-.377-.67-.377zM42.611 6.488c.335.168.712.46.712.837 0 .21-.084.335-.21.503-.083.125-.292.209-.46.209-.167 0-.293-.042-.502-.21-.252-.167-.419-.25-.712-.25-.335 0-.628.125-.837.376-.21.293-.335.67-.335 1.298s.084 1.046.335 1.34c.21.25.502.376.837.376.293 0 .46-.084.712-.25.209-.168.335-.21.502-.21.168 0 .335.084.46.21.126.125.21.292.21.501 0 .377-.377.67-.712.838-.335.209-.711.293-1.172.293-1.172 0-2.679-.628-2.679-3.056s1.465-3.056 2.68-3.056a1.87 1.87 0 011.171.251z"
            fill="#F69220"></path>
        <path
            d="M41.397 12.39a2.952 2.952 0 01-1.842-.627c-.586-.544-.92-1.382-.92-2.47 0-1.13.292-1.926.92-2.47.586-.544 1.34-.628 1.842-.628.46 0 .837.084 1.214.293.335.168.754.46.754.88 0 .209-.084.376-.21.544a.772.772 0 01-.502.209c-.167 0-.335-.042-.544-.21-.251-.167-.419-.25-.67-.25a.972.972 0 00-.795.376c-.21.293-.335.67-.335 1.256 0 .628.084 1.005.335 1.298.209.25.46.376.795.376.251 0 .46-.083.67-.25.21-.126.335-.252.544-.252.167 0 .377.084.502.21.168.167.21.334.21.544 0 .335-.252.628-.754.92a2.733 2.733 0 01-1.214.252zm.042-6.111c-.795 0-2.595.293-2.595 2.972 0 2.721 1.8 3.014 2.595 3.014.46 0 .795-.084 1.13-.293.46-.251.67-.502.67-.795 0-.168-.084-.293-.21-.46a.64.64 0 00-.418-.168c-.167 0-.293.042-.46.21-.252.208-.46.25-.754.25-.377 0-.67-.125-.879-.418-.251-.293-.335-.712-.335-1.34 0-.628.126-1.046.335-1.34.21-.25.502-.418.88-.418.334 0 .502.084.753.251.209.126.335.21.46.21.168 0 .293-.084.419-.168a.672.672 0 00.209-.46c0-.377-.419-.67-.67-.796-.335-.167-.67-.251-1.13-.251zM49.225 11.93c-.126.21-.335.335-.628.335s-.544-.125-.628-.335c-.083-.167-.083-.293-.083-.67V8.623c0-.795-.503-1.088-1.005-1.088-.502 0-1.005.251-1.005 1.088v2.638c0 .376 0 .502-.084.67-.125.209-.334.334-.627.334s-.545-.125-.628-.335c-.084-.167-.084-.293-.084-.67V5.066c0-.377 0-.502.084-.67.125-.209.335-.334.628-.334s.544.125.627.334c.084.168.084.293.084.67v1.758c.377-.376.796-.628 1.465-.628.586 0 1.089.21 1.424.545.502.502.627 1.046.627 1.716v2.846c-.041.335-.083.46-.167.628z"
            fill="#F69220"></path>
        <path
            d="M48.597 12.35c-.335 0-.586-.126-.712-.378-.083-.167-.083-.335-.083-.711V8.624c0-.921-.712-1.005-.921-1.005-.21 0-.921.084-.921 1.005v2.637c0 .377 0 .502-.084.711-.125.252-.377.377-.711.377-.335 0-.586-.125-.712-.377-.084-.167-.084-.335-.084-.711V5.065c0-.376 0-.502.084-.711.126-.251.377-.377.712-.377.334 0 .586.126.711.377.084.167.084.335.084.711v1.633c.419-.377.837-.544 1.381-.544.586 0 1.089.21 1.465.544.42.419.628.963.628 1.758v2.847c0 .376 0 .502-.083.711-.168.21-.419.335-.754.335zm-1.716-4.857c.502 0 1.046.293 1.046 1.13v2.638c0 .377 0 .502.084.628.084.209.335.335.586.335.251 0 .502-.126.586-.335.084-.126.084-.293.084-.628V8.414c0-.753-.168-1.256-.586-1.632-.335-.335-.795-.503-1.381-.503-.587 0-1.005.168-1.424.586l-.125.126V5.065c0-.376 0-.502-.084-.627-.084-.21-.335-.335-.586-.335-.293 0-.502.125-.586.335-.084.125-.084.293-.084.627v6.238c0 .376 0 .502.084.627.084.21.335.335.586.335.251 0 .502-.125.586-.335.084-.125.084-.293.084-.627V8.665c.041-.879.586-1.172 1.13-1.172z"
            fill="#F69220"></path>
    </g>
    <g class="muchbetter_svg__mono" clip-path="url(#muchbetter_svg__clip0)">
        <path
            d="M5.983 14.526a1.16 1.16 0 01-.963-.544L.332 5.902a1.156 1.156 0 01.419-1.548 1.156 1.156 0 011.548.418l4.689 8.037a1.156 1.156 0 01-.419 1.55c-.21.125-.377.167-.586.167z"
            fill="#4A5370"></path>
        <path
            d="M17.788 10.13c0-.586-.21-1.13-.544-1.716-.503-.92-1.089-1.507-1.884-1.884-.67-.334-1.423-.502-2.177-.418.251-.544.419-1.089.46-1.675.084-.837-.209-1.59-.711-2.511a4.204 4.204 0 00-1.214-1.34c-.502-.293-1.005-.502-1.59-.544a6.64 6.64 0 00-1.8.126c-.21.042-.42.125-.629.167l-.25.126c-.377.125-1.34.67-1.675.879l-1.633.963H4.1a1.332 1.332 0 00-.46 1.758 1.261 1.261 0 001.716.46h.042l2.637-1.507a2.66 2.66 0 01.754-.251c.25-.042.502 0 .753.042.251.084.46.21.712.377.21.167.377.376.544.628.126.25.251.502.293.795.042.293.042.544 0 .795s-.126.46-.293.67c-.126.21-.335.377-.544.502l-1.59.963-.67.377-.42.251c-.585.335-.753 1.047-.418 1.633.21.376.628.586 1.047.586.209 0 .418-.042.586-.168l.879-.502 2.26-1.214c.252-.126.46-.21.712-.21.251 0 .502.042.712.126.25.084.46.21.67.377.209.167.376.377.543.628.126.251.21.502.252.753.042.252.042.544-.042.796-.042.25-.168.46-.335.711-.168.21-.377.377-.628.544l-3.893 2.22h-.21l-.71.418-1.382.753c-.586.335-.838 1.088-.503 1.675.21.418.628.67 1.089.67.209 0 .418-.043.586-.168l3.349-1.8 2.72-1.465a7.613 7.613 0 001.591-1.214 4.59 4.59 0 001.005-1.465c.251-.586.377-1.13.335-1.717zM52.448 12.307c-.25 0-.544 0-.753-.21-.21-.208-.21-.501-.21-.753V5.065c0-.25 0-.544.21-.753.21-.21.502-.21.753-.21h2.344c1.633 0 2.554.921 2.554 2.303 0 .92-.586 1.507-1.047 1.716.503.251 1.13.754 1.13 1.842 0 1.549-1.046 2.386-2.511 2.386h-2.47v-.042zm.67-6.781V7.41h1.59c.67 0 1.047-.377 1.047-.963s-.377-.963-1.046-.963h-1.591v.042zm1.674 5.358c.712 0 1.089-.46 1.089-1.005 0-.544-.335-1.004-1.089-1.004h-1.674v2.009h1.674zM59.983 9.754c0 .795.46 1.34 1.34 1.34.377 0 .753-.084 1.046-.335.251-.168.377-.21.544-.21.293 0 .587.293.587.628 0 .293-.252.544-.587.754-.418.293-.962.418-1.632.418-1.423 0-2.805-.628-2.805-3.098 0-1.967 1.047-3.097 2.637-3.097 1.633 0 2.554 1.172 2.638 2.679 0 .251-.042.502-.21.67-.209.209-.418.209-.67.209h-2.888v.042zm2.177-1.675c-.167-.376-.502-.628-1.005-.628-.502 0-.837.252-1.004.628-.084.21-.126.377-.126.67h2.302a2.606 2.606 0 00-.167-.67zM65.216 7.619h-.168c-.293 0-.377 0-.502-.084a.533.533 0 01-.293-.502c0-.21.084-.419.293-.502.125-.084.21-.084.502-.084h.168V5.65c0-.376 0-.502.083-.67a.74.74 0 01.67-.376c.293 0 .544.126.67.377.084.167.084.293.084.67v.795h.46c.293 0 .377 0 .502.084a.533.533 0 01.293.502c0 .21-.083.418-.292.502-.126.084-.21.084-.503.084h-.46v2.888c0 .293.083.503.502.545.21 0 .335.041.46.083.168.084.293.251.293.544 0 .252-.125.46-.292.545-.126.083-.335.083-.628.083h-.084c-1.256 0-1.758-.837-1.758-1.716V7.619zM69.276 7.619h-.167c-.293 0-.377 0-.503-.084a.533.533 0 01-.293-.502c0-.21.084-.419.293-.502.126-.084.21-.084.503-.084h.167V5.65c0-.376 0-.502.084-.67a.74.74 0 01.67-.376c.293 0 .544.126.67.377.083.167.083.293.083.67v.795h.46c.294 0 .377 0 .503.084a.533.533 0 01.293.502c0 .21-.084.418-.293.502-.126.084-.21.084-.502.084h-.46v2.888c0 .293.083.503.501.545.21 0 .335.041.46.083.168.084.294.251.294.544 0 .252-.126.46-.293.545-.126.083-.335.083-.628.083h-.084c-1.256 0-1.758-.837-1.758-1.716V7.619zM74.132 9.754c0 .795.46 1.34 1.34 1.34.376 0 .753-.084 1.046-.335.251-.168.377-.21.544-.21.293 0 .586.293.586.628 0 .293-.25.544-.586.754-.418.293-.963.418-1.632.418-1.424 0-2.805-.628-2.805-3.098 0-1.967 1.046-3.097 2.637-3.097 1.633 0 2.554 1.172 2.637 2.679 0 .251-.041.502-.209.67-.21.209-.418.209-.67.209h-2.888v.042zm2.177-1.675c-.168-.376-.503-.628-1.005-.628-.502 0-.837.252-1.005.628-.083.21-.125.377-.125.67h2.302c-.084-.293-.084-.46-.167-.67zM81.96 6.195c.46 0 .753.084 1.046.293.21.168.377.377.377.628 0 .21-.084.419-.21.544a.772.772 0 01-.502.21c-.167 0-.293-.042-.502-.168-.167-.083-.376-.167-.586-.167-.502 0-1.004.335-1.004 1.088v2.68c0 .376 0 .502-.084.67a.74.74 0 01-.67.376c-.335 0-.544-.126-.67-.377-.084-.167-.084-.293-.084-.67v-4.06c0-.377 0-.503.126-.67a.738.738 0 01.628-.335.67.67 0 01.46.168c.126.125.21.25.21.46.335-.335.879-.67 1.465-.67z"
            fill="#34405E"></path>
        <path
            d="M26.578 10.13L25.24 7.493v3.684c0 .377 0 .502-.126.712a.813.813 0 01-.711.376.812.812 0 01-.712-.377c-.084-.209-.125-.334-.125-.711V5.023c0-.335.041-.586.25-.753a.796.796 0 01.545-.21c.21 0 .335.042.46.126.168.084.293.293.419.502l2.051 3.893 2.051-3.893c.084-.209.252-.376.419-.502a.844.844 0 01.46-.125c.21 0 .377.083.545.209.209.21.25.418.25.753v6.196c0 .376 0 .502-.125.711a.813.813 0 01-.712.377.813.813 0 01-.711-.377c-.084-.209-.126-.335-.126-.711V7.535l-1.214 2.595c-.209.377-.376.544-.753.544s-.586-.125-.796-.544z"
            fill="#4A5370"></path>
        <path
            d="M30.262 12.349c-.335 0-.628-.167-.753-.419-.126-.209-.126-.335-.126-.711V7.786l-1.214 2.386c-.21.377-.377.586-.837.586-.419 0-.628-.209-.837-.586L25.28 7.786v3.433c0 .377 0 .502-.126.711-.125.252-.418.419-.753.419s-.628-.167-.754-.419c-.125-.209-.125-.376-.125-.711V5.023c0-.334.042-.586.25-.837a.76.76 0 01.587-.25c.21 0 .377.04.502.125.21.125.335.376.419.502l1.967 3.767 1.968-3.767c.083-.126.209-.377.418-.502.126-.084.293-.126.503-.126a.76.76 0 01.586.251c.209.21.25.46.25.837v6.196c0 .377 0 .502-.125.711.042.252-.25.419-.586.419zm-.753-5.107v3.977c0 .377 0 .502.084.67.125.209.376.334.627.334.293 0 .503-.125.628-.335.084-.167.084-.293.084-.67V5.024c0-.334-.042-.544-.21-.711a.693.693 0 00-.502-.21.954.954 0 00-.46.126c-.126.084-.251.251-.377.46L27.29 8.666 25.197 4.69c-.125-.21-.251-.377-.377-.46a.752.752 0 00-.46-.127.693.693 0 00-.502.21c-.168.167-.21.418-.21.711v6.196c0 .377 0 .502.084.67.126.209.377.334.628.334.293 0 .502-.125.628-.335.21-.167.21-.293.21-.67V7.243l1.464 2.846c.21.42.377.545.712.545.335 0 .502-.126.712-.544l1.423-2.847zM34.616 12.307c-.586 0-1.089-.209-1.423-.544-.503-.502-.628-1.046-.628-1.716V7.2c0-.376 0-.502.083-.67.126-.209.335-.334.628-.334s.544.125.628.335c.084.167.084.293.084.67v2.637c0 .795.502 1.088 1.005 1.088.46 0 1.004-.251 1.004-1.088V7.2c0-.376 0-.502.084-.67.125-.209.335-.334.628-.334s.544.125.628.335c.083.167.083.293.083.67v4.018c0 .377 0 .502-.125.67a.738.738 0 01-.628.335.67.67 0 01-.46-.168c-.126-.125-.168-.25-.21-.418-.251.46-.837.67-1.381.67z"
            fill="#4A5370"></path>
        <path
            d="M34.616 12.391c-.586 0-1.089-.21-1.465-.544-.419-.419-.628-.963-.628-1.758V7.242c0-.377 0-.502.083-.711.126-.252.377-.377.712-.377.335 0 .586.125.712.377.083.167.083.334.083.711V9.88c0 .921.712 1.005.921 1.005.21 0 .921-.084.921-1.005V7.242c0-.377 0-.502.084-.711.126-.252.377-.377.712-.377.335 0 .586.125.711.377.084.167.084.334.084.711v4.019c0 .377 0 .502-.126.711a.813.813 0 01-.711.377.694.694 0 01-.503-.21c-.125-.083-.167-.208-.209-.334-.293.377-.837.586-1.381.586zM33.36 6.279c-.293 0-.502.126-.586.335-.084.126-.084.293-.084.628v2.847c0 .753.168 1.255.586 1.632.335.335.795.503 1.382.503.544 0 1.088-.21 1.465-.628l.083-.084.042.125c.042.21.084.294.21.42.125.083.25.167.418.167.251 0 .503-.126.586-.293.084-.168.084-.252.084-.628V7.284c0-.377 0-.502-.084-.628-.084-.21-.335-.335-.586-.335-.251 0-.502.126-.586.335-.084.126-.084.293-.084.628v2.637c0 .838-.544 1.13-1.046 1.13s-1.047-.293-1.047-1.13V7.284c0-.377 0-.502-.083-.628-.21-.251-.419-.377-.67-.377zM42.611 6.488c.335.168.712.46.712.837 0 .21-.084.335-.21.503-.083.125-.293.209-.46.209-.167 0-.293-.042-.502-.21-.252-.167-.419-.25-.712-.25-.335 0-.628.125-.837.376-.21.293-.335.67-.335 1.298s.084 1.046.335 1.34c.21.25.502.376.837.376.293 0 .46-.084.712-.25.209-.168.334-.21.502-.21.167 0 .335.084.46.21.126.125.21.292.21.501 0 .377-.377.67-.712.838-.335.209-.712.293-1.172.293-1.172 0-2.68-.628-2.68-3.056s1.466-3.056 2.68-3.056a1.87 1.87 0 011.172.251z"
            fill="#4A5370"></path>
        <path
            d="M41.397 12.39a2.952 2.952 0 01-1.842-.627c-.586-.544-.92-1.382-.92-2.47 0-1.13.292-1.926.92-2.47.586-.544 1.34-.628 1.842-.628.46 0 .837.084 1.214.293.335.168.754.46.754.88 0 .209-.084.376-.21.544a.772.772 0 01-.502.209c-.168 0-.335-.042-.544-.21-.252-.167-.419-.25-.67-.25a.972.972 0 00-.795.376c-.21.293-.335.67-.335 1.256 0 .628.083 1.005.335 1.298.209.25.46.376.795.376.251 0 .46-.083.67-.25.209-.126.335-.252.544-.252.167 0 .377.084.502.21.168.167.21.334.21.544 0 .335-.252.628-.754.92a2.733 2.733 0 01-1.214.252zm.042-6.111c-.795 0-2.595.293-2.595 2.972 0 2.721 1.8 3.014 2.595 3.014.46 0 .795-.084 1.13-.293.46-.251.67-.502.67-.795 0-.168-.084-.293-.21-.46a.64.64 0 00-.418-.168c-.167 0-.293.042-.46.21-.252.208-.46.25-.754.25-.377 0-.67-.125-.879-.418-.251-.293-.335-.712-.335-1.34 0-.628.126-1.046.335-1.34.21-.25.502-.418.88-.418.334 0 .501.084.753.251.209.126.334.21.46.21.168 0 .293-.084.419-.168a.672.672 0 00.209-.46c0-.377-.419-.67-.67-.796-.335-.167-.67-.251-1.13-.251zM49.225 11.93c-.126.21-.335.335-.628.335s-.544-.125-.628-.335c-.083-.167-.083-.293-.083-.67V8.623c0-.795-.503-1.088-1.005-1.088-.502 0-1.005.251-1.005 1.088v2.638c0 .376 0 .502-.084.67-.125.209-.334.334-.627.334s-.545-.125-.628-.335c-.084-.167-.084-.293-.084-.67V5.066c0-.377 0-.502.084-.67.125-.209.335-.334.628-.334s.544.125.627.334c.084.168.084.293.084.67v1.758c.377-.376.796-.628 1.465-.628.586 0 1.089.21 1.424.545.502.502.627 1.046.627 1.716v2.846c-.041.335-.083.46-.167.628z"
            fill="#4A5370"></path>
        <path
            d="M48.597 12.35c-.335 0-.586-.126-.712-.378-.083-.167-.083-.335-.083-.711V8.624c0-.921-.712-1.005-.921-1.005-.21 0-.921.084-.921 1.005v2.637c0 .377 0 .502-.084.711-.125.252-.377.377-.711.377-.335 0-.586-.125-.712-.377-.084-.167-.084-.335-.084-.711V5.065c0-.376 0-.502.084-.711.126-.251.377-.377.712-.377.334 0 .586.126.711.377.084.167.084.335.084.711v1.633c.419-.377.837-.544 1.381-.544.586 0 1.089.21 1.465.544.42.419.628.963.628 1.758v2.847c0 .376 0 .502-.083.711-.168.21-.419.335-.754.335zm-1.716-4.857c.502 0 1.046.293 1.046 1.13v2.638c0 .377 0 .502.084.628.084.209.335.335.586.335.251 0 .502-.126.586-.335.084-.126.084-.293.084-.628V8.414c0-.753-.168-1.256-.586-1.632-.335-.335-.795-.503-1.381-.503-.587 0-1.005.168-1.424.586l-.125.126V5.065c0-.376 0-.502-.084-.627-.084-.21-.335-.335-.586-.335-.293 0-.502.125-.586.335-.084.125-.084.293-.084.627v6.238c0 .376 0 .502.084.627.084.21.335.335.586.335.251 0 .502-.125.586-.335.084-.125.084-.293.084-.627V8.665c.041-.879.586-1.172 1.13-1.172z"
            fill="#4A5370"></path>
    </g>
    <defs>
        <clipPath id="muchbetter_svg__clip0">
            <path fill="#fff" transform="translate(.08)" d="M0 0h83.302v18H0z"></path>
        </clipPath>
    </defs>
</svg>