<svg viewBox="0 0 19 18" fill="none" xmlns="http://www.w3.org/2000/svg" aria-hidden="true">
    <g class="piastrix_svg__color">
        <path
            d="M10.82 10.703c.609.962.964 1.96 1.064 2.995.887.72 2.3 1.075 4.24 1.061a5.624 5.624 0 00-.346-2.312h.02a4.552 4.552 0 00-.83-1.294.056.056 0 00-.02-.038 2.808 2.808 0 00-.405-.367c-.853-.654-1.864-1.06-3.033-1.215-.108.45-.348.858-.69 1.17z"
            fill="#FF4182"></path>
        <path
            d="M10.82 10.703c.609.962.964 1.96 1.064 2.995.887.72 2.3 1.075 4.24 1.061a5.624 5.624 0 00-.346-2.312h.02a4.552 4.552 0 00-.83-1.294.056.056 0 00-.02-.038 2.808 2.808 0 00-.405-.367c-.853-.654-1.864-1.06-3.033-1.215-.108.45-.348.858-.69 1.17zM14.544 6.157h.02c.552-.836.906-2.032 1.06-3.588-.85-.128-1.633-.09-2.351.116a4.524 4.524 0 00-1.677.926v.02l-.116.115h-.02c-.77.814-1.282 1.826-1.538 3.036.351.105.673.292.937.546 1.179-.769 2.407-1.16 3.685-1.17z"
            fill="#FF4182"></path>
        <path
            d="M14.544 6.157h.02c.552-.836.906-2.032 1.06-3.588-.85-.128-1.633-.09-2.351.116a4.524 4.524 0 00-1.677.926v.02l-.116.115h-.02c-.77.814-1.282 1.826-1.538 3.036.351.105.673.292.937.546 1.179-.769 2.407-1.16 3.685-1.17zM14.93 10.265c.128.103.25.212.366.328.9-.244 1.895-.803 2.987-1.678a5.318 5.318 0 00-1.716-1.6 4.136 4.136 0 00-1.85-.54h-.173c-1.15.01-2.25.356-3.3 1.035.202.335.314.715.328 1.104 1.285.172 2.404.622 3.358 1.351z"
            fill="#FF4182"></path>
        <path
            d="M14.93 10.265c.128.103.25.212.366.328.9-.244 1.895-.803 2.987-1.678a5.318 5.318 0 00-1.716-1.6 4.136 4.136 0 00-1.85-.54h-.173c-1.15.01-2.25.356-3.3 1.035.202.335.314.715.328 1.104 1.285.172 2.404.622 3.358 1.351zM8.842 11.27a2.289 2.289 0 001.475-.218c.57.906.892 1.84.969 2.8v.039c.013.121.02.243.02.366-.009.712-.201 1.41-.56 2.026-.359.644-.892 1.217-1.599 1.717h-.004c-.706-.503-1.237-1.075-1.596-1.716a4.121 4.121 0 01-.549-1.786c.162-.15.306-.319.431-.502l.018-.018a9.116 9.116 0 001.395-2.708z"
            fill="#FF4182"></path>
        <path
            d="M8.842 11.27a2.289 2.289 0 001.475-.218c.57.906.892 1.84.969 2.8v.039c.013.121.02.243.02.366-.009.712-.201 1.41-.56 2.026-.359.644-.892 1.217-1.599 1.717h-.004c-.706-.503-1.237-1.075-1.596-1.716a4.121 4.121 0 01-.549-1.786c.162-.15.306-.319.431-.502l.018-.018a9.116 9.116 0 001.395-2.708zM7.22 4.132v.02c.12.947.453 1.876.998 2.787a2.292 2.292 0 011.05-.253h.045c.281-1.33.849-2.446 1.704-3.345a.017.017 0 00.02-.02c-.002-.005 0-.01.004-.014a.017.017 0 01.015-.005c-.193-.99-.79-2.09-1.792-3.302a5.592 5.592 0 00-1.581 1.736 4.192 4.192 0 00-.52 1.62.207.207 0 01.038.115c-.026.22-.02.443.02.66z"
            fill="#FF4182"></path>
        <path
            d="M7.22 4.132v.02c.12.947.453 1.876.998 2.787a2.292 2.292 0 011.05-.253h.045c.281-1.33.849-2.446 1.704-3.345a.017.017 0 00.02-.02c-.002-.005 0-.01.004-.014a.017.017 0 01.015-.005c-.193-.99-.79-2.09-1.792-3.302a5.592 5.592 0 00-1.581 1.736 4.192 4.192 0 00-.52 1.62.207.207 0 01.038.115c-.026.22-.02.443.02.66z"
            fill="#FF4182"></path>
        <path
            d="M9.86 10.62c.03-.01.06-.018.089-.03a1.687 1.687 0 001.02-1.87c-.009-.05-.018-.1-.03-.15a1.781 1.781 0 00-.68-.987c-.024-.016-.048-.032-.075-.048a1.718 1.718 0 00-.17-.092c-.04-.02-.08-.04-.124-.057-.2-.08-.414-.122-.63-.123-.02 0-.039.006-.058.006v.006c-.228.01-.452.062-.662.15A1.726 1.726 0 009.573 10.7l.075-.015c.072-.017.143-.038.212-.065z"
            fill="#FFD833"></path>
        <path
            d="M3.734 6.796l-.012-.015c-.995.114-2.138.611-3.428 1.493.448.734.981 1.31 1.6 1.729.54.355 1.149.59 1.787.69l.015-.013.162.014.014.017c1.116.066 2.22-.192 3.312-.774A2.312 2.312 0 017 8.868c-1.346-.409-2.434-1.1-3.265-2.072z"
            fill="#FF4182"></path>
        <path
            d="M3.734 6.796l-.012-.015c-.995.114-2.138.611-3.428 1.493.448.734.981 1.31 1.6 1.729.54.355 1.149.59 1.787.69l.015-.013.162.014.014.017c1.116.066 2.22-.192 3.312-.774A2.312 2.312 0 017 8.868c-1.346-.409-2.434-1.1-3.265-2.072zM6.631 3.86a4.44 4.44 0 01.016-.492c-.765-.532-1.834-.936-3.205-1.211A5.325 5.325 0 003.32 4.5c.116.641.381 1.246.775 1.765l.112.133c.747.875 1.718 1.496 2.914 1.864.126-.37.345-.7.635-.96C7.06 6.206 6.686 5.058 6.63 3.86z"
            fill="#FF4182"></path>
        <path
            d="M6.631 3.86a4.44 4.44 0 01.016-.492c-.765-.532-1.834-.936-3.205-1.211A5.325 5.325 0 003.32 4.5c.116.641.381 1.246.775 1.765l.112.133c.747.875 1.718 1.496 2.914 1.864.126-.37.345-.7.635-.96C7.06 6.206 6.686 5.058 6.63 3.86zM6.892 13.713l.015-.013c.648-.701 1.146-1.553 1.492-2.557a2.294 2.294 0 01-.869-.642l-.028-.034c-1.2.64-2.418.92-3.656.843a.017.017 0 00-.027-.002.017.017 0 01-.015.006.017.017 0 01-.013-.008c-.634.784-1.092 1.95-1.375 3.496.766.198 1.565.23 2.344.096a4.185 4.185 0 001.575-.643.208.208 0 01.064-.103c.185-.121.351-.27.493-.44z"
            fill="#FF4182"></path>
        <path
            d="M6.892 13.713l.015-.013c.648-.701 1.146-1.553 1.492-2.557a2.294 2.294 0 01-.869-.642l-.028-.034c-1.2.64-2.418.92-3.656.843a.017.017 0 00-.027-.002.017.017 0 01-.015.006.017.017 0 01-.013-.008c-.634.784-1.092 1.95-1.375 3.496.766.198 1.565.23 2.344.096a4.185 4.185 0 001.575-.643.208.208 0 01.064-.103c.185-.121.351-.27.493-.44z"
            fill="#FF4182"></path>
    </g>
    <g class="piastrix_svg__mono">
        <path
            d="M10.82 10.703c.609.962.964 1.96 1.064 2.995.887.72 2.3 1.075 4.24 1.061a5.624 5.624 0 00-.346-2.312h.02a4.552 4.552 0 00-.83-1.294.056.056 0 00-.02-.038 2.808 2.808 0 00-.405-.367c-.853-.654-1.864-1.06-3.033-1.215-.108.45-.348.858-.69 1.17z"
            fill="#34405E"></path>
        <path
            d="M10.82 10.703c.609.962.964 1.96 1.064 2.995.887.72 2.3 1.075 4.24 1.061a5.624 5.624 0 00-.346-2.312h.02a4.552 4.552 0 00-.83-1.294.056.056 0 00-.02-.038 2.808 2.808 0 00-.405-.367c-.853-.654-1.864-1.06-3.033-1.215-.108.45-.348.858-.69 1.17zM14.544 6.157h.02c.552-.836.906-2.032 1.06-3.588-.85-.128-1.633-.09-2.351.116a4.524 4.524 0 00-1.677.926v.02l-.116.115h-.02c-.77.814-1.282 1.826-1.538 3.036.351.105.673.292.937.546 1.179-.769 2.407-1.16 3.685-1.17z"
            fill="#34405E"></path>
        <path
            d="M14.544 6.157h.02c.552-.836.906-2.032 1.06-3.588-.85-.128-1.633-.09-2.351.116a4.524 4.524 0 00-1.677.926v.02l-.116.115h-.02c-.77.814-1.282 1.826-1.538 3.036.351.105.673.292.937.546 1.179-.769 2.407-1.16 3.685-1.17zM14.93 10.265c.128.103.25.212.366.328.9-.244 1.895-.803 2.987-1.678a5.318 5.318 0 00-1.716-1.6 4.136 4.136 0 00-1.85-.54h-.173c-1.15.01-2.25.356-3.3 1.035.202.335.314.715.328 1.104 1.285.172 2.404.622 3.358 1.351z"
            fill="#34405E"></path>
        <path
            d="M14.93 10.265c.128.103.25.212.366.328.9-.244 1.895-.803 2.987-1.678a5.318 5.318 0 00-1.716-1.6 4.136 4.136 0 00-1.85-.54h-.173c-1.15.01-2.25.356-3.3 1.035.202.335.314.715.328 1.104 1.285.172 2.404.622 3.358 1.351zM8.842 11.27a2.289 2.289 0 001.475-.218c.57.906.892 1.84.969 2.8v.039c.013.121.02.243.02.366-.009.712-.201 1.41-.56 2.026-.359.644-.892 1.217-1.599 1.717h-.004c-.706-.503-1.237-1.075-1.596-1.716a4.121 4.121 0 01-.549-1.786c.162-.15.306-.319.431-.502l.018-.018a9.116 9.116 0 001.395-2.708z"
            fill="#34405E"></path>
        <path
            d="M8.842 11.27a2.289 2.289 0 001.475-.218c.57.906.892 1.84.969 2.8v.039c.013.121.02.243.02.366-.009.712-.201 1.41-.56 2.026-.359.644-.892 1.217-1.599 1.717h-.004c-.706-.503-1.237-1.075-1.596-1.716a4.121 4.121 0 01-.549-1.786c.162-.15.306-.319.431-.502l.018-.018a9.116 9.116 0 001.395-2.708zM7.22 4.132v.02c.12.947.453 1.876.998 2.787a2.292 2.292 0 011.05-.253h.045c.281-1.33.849-2.446 1.704-3.345a.017.017 0 00.02-.02c-.002-.005 0-.01.004-.014a.017.017 0 01.015-.005c-.193-.99-.79-2.09-1.792-3.302a5.592 5.592 0 00-1.581 1.736 4.192 4.192 0 00-.52 1.62.207.207 0 01.038.115c-.026.22-.02.443.02.66z"
            fill="#34405E"></path>
        <path
            d="M7.22 4.132v.02c.12.947.453 1.876.998 2.787a2.292 2.292 0 011.05-.253h.045c.281-1.33.849-2.446 1.704-3.345a.017.017 0 00.02-.02c-.002-.005 0-.01.004-.014a.017.017 0 01.015-.005c-.193-.99-.79-2.09-1.792-3.302a5.592 5.592 0 00-1.581 1.736 4.192 4.192 0 00-.52 1.62.207.207 0 01.038.115c-.026.22-.02.443.02.66z"
            fill="#34405E"></path>
        <path
            d="M9.86 10.62c.03-.01.06-.018.089-.03a1.687 1.687 0 001.02-1.87c-.009-.05-.018-.1-.03-.15a1.781 1.781 0 00-.68-.987c-.024-.016-.048-.032-.075-.048a1.718 1.718 0 00-.17-.092c-.04-.02-.08-.04-.124-.057-.2-.08-.414-.122-.63-.123-.02 0-.039.006-.058.006v.006c-.228.01-.452.062-.662.15A1.726 1.726 0 009.573 10.7l.075-.015c.072-.017.143-.038.212-.065z"
            fill="#5D6375"></path>
        <path
            d="M3.734 6.796l-.012-.015c-.995.114-2.138.611-3.428 1.493.448.734.981 1.31 1.6 1.729.54.355 1.149.59 1.787.69l.015-.013.162.014.014.017c1.116.066 2.22-.192 3.312-.774A2.312 2.312 0 017 8.868c-1.346-.409-2.434-1.1-3.265-2.072z"
            fill="#34405E"></path>
        <path
            d="M3.734 6.796l-.012-.015c-.995.114-2.138.611-3.428 1.493.448.734.981 1.31 1.6 1.729.54.355 1.149.59 1.787.69l.015-.013.162.014.014.017c1.116.066 2.22-.192 3.312-.774A2.312 2.312 0 017 8.868c-1.346-.409-2.434-1.1-3.265-2.072zM6.631 3.86a4.44 4.44 0 01.016-.492c-.765-.532-1.834-.936-3.205-1.211A5.325 5.325 0 003.32 4.5c.116.641.381 1.246.775 1.765l.112.133c.747.875 1.718 1.496 2.914 1.864.126-.37.345-.7.635-.96C7.06 6.206 6.686 5.058 6.63 3.86z"
            fill="#34405E"></path>
        <path
            d="M6.631 3.86a4.44 4.44 0 01.016-.492c-.765-.532-1.834-.936-3.205-1.211A5.325 5.325 0 003.32 4.5c.116.641.381 1.246.775 1.765l.112.133c.747.875 1.718 1.496 2.914 1.864.126-.37.345-.7.635-.96C7.06 6.206 6.686 5.058 6.63 3.86zM6.892 13.713l.015-.013c.648-.701 1.146-1.553 1.492-2.557a2.294 2.294 0 01-.869-.642l-.028-.034c-1.2.64-2.418.92-3.656.843a.017.017 0 00-.027-.002.017.017 0 01-.015.006.017.017 0 01-.013-.008c-.634.784-1.092 1.95-1.375 3.496.766.198 1.565.23 2.344.096a4.185 4.185 0 001.575-.643.208.208 0 01.064-.103c.185-.121.351-.27.493-.44z"
            fill="#34405E"></path>
        <path
            d="M6.892 13.713l.015-.013c.648-.701 1.146-1.553 1.492-2.557a2.294 2.294 0 01-.869-.642l-.028-.034c-1.2.64-2.418.92-3.656.843a.017.017 0 00-.027-.002.017.017 0 01-.015.006.017.017 0 01-.013-.008c-.634.784-1.092 1.95-1.375 3.496.766.198 1.565.23 2.344.096a4.185 4.185 0 001.575-.643.208.208 0 01.064-.103c.185-.121.351-.27.493-.44z"
            fill="#34405E"></path>
    </g>
</svg>