<svg viewBox="0 0 21 21" xmlns="http://www.w3.org/2000/svg" aria-hidden="true"
    role="img">
    <path fill-rule="evenodd" clip-rule="evenodd"
        d="M10.5 0C4.7 0 0 4.7 0 10.5S4.7 21 10.5 21 21 16.3 21 10.5 16.3 0 10.5 0zm-.212 15.54a1.042 1.042 0 01-1.048-1.05c0-.586.47-1.05 1.048-1.05.582 0 1.052.459 1.052 1.05a1.04 1.04 0 01-1.052 1.05zm1.769-5.284c-.857.508-1.147.881-1.147 1.526v.398H9.202l-.014-.433c-.084-1.038.27-1.683 1.161-2.217.832-.508 1.181-.83 1.181-1.456 0-.624-.59-1.083-1.324-1.083-.743 0-1.28.494-1.319 1.24H7.14c.034-1.622 1.206-2.771 3.185-2.771 1.845 0 3.115 1.048 3.115 2.554 0 1.002-.473 1.693-1.383 2.242z"></path>
</svg>