<svg width="101" height="25" viewBox="0 0 101 25" fill="none" xmlns="http://www.w3.org/2000/svg"
    id="card_sberpay">
    <g class="card_sberpay_svg__color">
        <path
            d="M17.527 12.01a4 4 0 00-.62-.222 3.513 3.513 0 00-1.015-.117 1.476 1.476 0 00-.657.153.614.614 0 00-.304.31c-.071.173-.036.325.08.465.107.127.245.221.387.3.157.089.315.174.474.259l.315.17c.294.163.576.346.812.59a1.7 1.7 0 01.485.922c.03.186.032.371.012.56a2.21 2.21 0 01-.264.864 2.36 2.36 0 01-.954.92c-.34.188-.705.302-1.088.373a5.023 5.023 0 01-1.051.079 5.99 5.99 0 01-1.655-.267 5.161 5.161 0 01-.302-.11c.115-.528.226-1.054.338-1.582.02.007.035.015.05.022.267.127.536.242.823.316.236.06.474.099.718.111.188.01.373.016.558-.01.246-.033.48-.096.675-.259a.551.551 0 00.186-.612.615.615 0 00-.17-.247 1.967 1.967 0 00-.445-.305c-.097-.052-.195-.102-.293-.153a16.401 16.401 0 01-.366-.193 3.15 3.15 0 01-.856-.653 1.677 1.677 0 01-.423-.836 1.968 1.968 0 01.048-.851c.134-.496.426-.884.832-1.187a3.251 3.251 0 011.246-.549c.404-.089.815-.12 1.228-.099.508.023 1 .13 1.477.3.033.013.038.023.033.058-.104.483-.208.966-.31 1.449.003.005 0 .015-.004.03z"
            fill="#1D33C3"></path>
        <path fill-rule="evenodd" clip-rule="evenodd"
            d="M24.114 17.523h-1.675c-.035 0-.05-.008-.058-.046l-.117-.558-.091-.438c-.005-.028-.018-.039-.049-.039H19.8c-.028 0-.04.01-.048.036l-.363 1.006c-.01.028-.023.038-.053.038h-1.914a7781.72 7781.72 0 011.405-3.362l.003-.008 1.384-3.308a.84.84 0 01.677-.541.772.772 0 01.132-.01h1.54c.036 0 .046.012.054.045l.487 2.34.22 1.054c.072.351.145.703.219 1.054l.256 1.227v.003a784.85 784.85 0 01.29 1.384v.001l.025.122zm-2.818-5.263v-.003h-.014l-.98 2.71c.52-.004 1.036-.004 1.557-.004l-.563-2.703z"
            fill="#1D33C3"></path>
        <path
            d="M1.018 10.412c-.005.03-.012.058-.018.089.013.002.023.005.03.012.105.029.211.056.317.084.196.051.392.103.587.16.32.094.627.216.921.371a.731.731 0 01.383.473l.11.42.111.421 1.18 4.575a29.216 29.216 0 00.132.508.2.2 0 00.038.003h1.898c.03.002.043-.01.053-.039l1.495-3.572.001-.002 1.496-3.574.006-.017a.269.269 0 01.01-.027H8.788c-.308 0-.616 0-.925-.002-.04 0-.058.013-.073.05l-.52 1.319c-.439 1.111-.877 2.225-1.318 3.337l-.086.216-.01-.05-.117-.623a262.504 262.504 0 01-.279-1.487l-.134-.716-.084-.442c-.055-.295-.11-.59-.168-.885a.867.867 0 00-.883-.72H1.043l-.025.118zM9.074 17.337l-.038.181a.03.03 0 01.003.002c.006.002.01.003.015 0h1.817c.02 0 .028-.007.033-.027a13.984 13.984 0 00.058-.272c.236-1.113.475-2.226.713-3.339.207-.962.413-1.926.618-2.888l.108-.508c.015-.063.028-.127.04-.195h-.629c-.4.001-.798.002-1.198 0-.033 0-.037.018-.042.04v.003c-.044.193-.084.386-.125.58l-.45 2.094-.223 1.045-.223 1.046-.22 1.028-.219 1.028-.038.182z"
            fill="#1D33C3"></path>
        <path d="M33.053 10.156h3.66v6.588h-3.66v-6.588z" fill="#FF5F00"></path>
        <path
            d="M33.286 13.448c0-1.339.627-2.526 1.592-3.294a4.154 4.154 0 00-2.58-.896 4.184 4.184 0 00-4.184 4.19 4.184 4.184 0 004.184 4.19c.976 0 1.871-.338 2.58-.896a4.186 4.186 0 01-1.592-3.294z"
            fill="#EB001B"></path>
        <path
            d="M41.653 13.448a4.184 4.184 0 01-4.184 4.19 4.155 4.155 0 01-2.58-.896 4.168 4.168 0 001.592-3.294 4.203 4.203 0 00-1.592-3.294 4.155 4.155 0 012.58-.896 4.192 4.192 0 014.184 4.19z"
            fill="#F79E1B"></path>
        <path fill-rule="evenodd" clip-rule="evenodd"
            d="M48.518 9.175c.277-.001 1.1-.076 1.448 1.102.235.794.609 2.093 1.122 3.899h.209c.55-1.904.928-3.203 1.134-3.899.352-1.19 1.232-1.102 1.584-1.102h2.716v8.463h-2.768v-4.987h-.186l-1.543 4.987H50.15l-1.544-4.99h-.185v4.99h-2.769V9.175h2.865zm12.189 0v4.991h.22l1.878-4.104c.364-.816 1.141-.887 1.141-.887h2.68v8.463h-2.827v-4.99h-.22l-1.841 4.103c-.365.813-1.178.887-1.178.887h-2.68V9.175h2.827zm15.688 4.022c-.395 1.119-1.633 1.92-3.004 1.92h-2.964v2.521H67.74v-4.441h8.655z"
            fill="#0F754E"></path>
        <path fill-rule="evenodd" clip-rule="evenodd"
            d="M73.522 9.176h-5.923c.14 1.884 1.76 3.497 3.438 3.497h5.545c.32-1.566-.781-3.497-3.06-3.497z"
            fill="url(#card_sberpay_svg__a)"></path>
        <path
            d="M80.636 13a4.638 4.638 0 014.639-4.639h10.1a4.639 4.639 0 110 9.277h-10.1a4.638 4.638 0 01-4.639-4.639z"
            fill="url(#card_sberpay_svg__b)"></path>
        <path
            d="M86.87 11.013c-.153.114-.3.218-.441.33-.083.065-.133.003-.194-.032-.59-.342-1.2-.362-1.81-.073a1.942 1.942 0 00-1.02 2.355c.31.974 1.35 1.578 2.367 1.287.733-.21 1.2-.706 1.4-1.446a.757.757 0 00.03-.26c-.025-.228.118-.322.27-.421.096-.063.201-.215.281-.174.089.045.057.218.062.337.056 1.359-.992 2.512-2.383 2.625a2.503 2.503 0 01-1.335-.272 2.437 2.437 0 01-1.163-1.223c-.34-.754-.302-1.501.059-2.246.705-1.455 2.704-1.776 3.877-.786zM92.33 12.664c-.113.415-.405.638-.801.75l-.137.039c-.226.04-.455.038-.684.036-.239 0-.359.121-.358.366 0 .181-.005.362.002.543.004.099-.018.146-.13.137-.152-.013-.35.046-.447-.03-.103-.081-.032-.289-.032-.44-.004-.91.001-1.819-.004-2.728 0-.126.032-.16.157-.156.467.016.936-.022 1.403.033.169.02.334.057.49.127.371.168.56.457.566.862.002.154.02.309-.025.46zm-1.982-.329h.001c0 .165.004.33-.002.494-.002.08.016.115.105.112.196-.008.394 0 .59-.01a1.01 1.01 0 00.4-.093c.215-.105.328-.34.292-.603-.034-.245-.175-.402-.386-.444-.293-.06-.588-.046-.884-.05-.088-.002-.122.024-.118.116.007.16.002.319.002.478zM93.82 12.105c.125.026.25.051.366.108.226.11.352.297.369.539.04.557.01 1.116.02 1.674.001.086-.035.113-.115.106-.042-.004-.085 0-.127 0-.204 0-.312-.098-.324-.294-.026-.015-.04.007-.05.022-.224.313-.81.445-1.225.164-.165-.112-.248-.316-.248-.538 0-.434.17-.648.596-.727.264-.049.53-.032.795-.029.12.002.144-.043.134-.149-.026-.279-.153-.386-.485-.393a.957.957 0 00-.856.428v-.464c.007-.296.01-.298.3-.387.279-.085.564-.083.85-.06zm-.165 1.39a1.525 1.525 0 00-.387.027c-.104.023-.188.078-.207.194-.017.107.011.202.1.27.236.183.729.04.829-.242.07-.197.035-.248-.166-.248h-.17z"
            fill="#FEFEFE"></path>
        <path
            d="M84.286 12.694c0-.09.003-.18 0-.27-.004-.102.034-.107.11-.058.23.15.467.29.692.448.122.085.208.086.328-.009.394-.31.791-.62 1.203-.907.194-.136.387-.275.58-.412.069-.05.093-.044.145.027.293.407.293.4-.102.688-.62.452-1.236.909-1.849 1.368-.094.071-.162.082-.264.013a7.56 7.56 0 00-.666-.415c-.144-.077-.2-.174-.177-.33.007-.046 0-.095 0-.143zM97.253 12.142l-.576 1.592c-.13.359-.26.717-.388 1.076a1.9 1.9 0 01-.206.41c-.197.3-.563.318-.84.206-.057-.023-.075-.065-.074-.125.003-.139.001-.277.001-.424.028.008.049.011.065.02.144.083.289.113.427-.008a.418.418 0 00.12-.477c-.296-.72-.597-1.437-.897-2.156-.015-.034-.038-.064-.023-.114.177 0 .357.005.537-.002.072-.002.09.041.108.089.172.427.343.853.513 1.28.02.05.019.135.083.13.066-.003.083-.083.104-.145.133-.409.272-.816.402-1.226.03-.095.07-.136.177-.129.147.011.296.003.467.003z"
            fill="#FEFEFE"></path>
        <defs>
            <linearGradient id="card_sberpay_svg__a" x1="76.636" y1="11.376" x2="67.599" y2="11.376"
                gradientUnits="userSpaceOnUse">
                <stop stop-color="#1F5CD7"></stop>
                <stop offset="1" stop-color="#02AEFF"></stop>
            </linearGradient>
            <linearGradient id="card_sberpay_svg__b" x1="81.795" y1="9.347" x2="89.957" y2="20.935"
                gradientUnits="userSpaceOnUse">
                <stop stop-color="#F5EB00"></stop>
                <stop offset=".658" stop-color="#00D116"></stop>
                <stop offset=".985" stop-color="#00A7F5"></stop>
            </linearGradient>
        </defs>
    </g>
</svg>