<svg viewBox="0 0 59 18" fill="none" xmlns="http://www.w3.org/2000/svg" aria-hidden="true">
    <g class="skrill_svg__color">
        <g clip-path="url(#skrill_svg__a)">
            <path fill-rule="evenodd" clip-rule="evenodd"
                d="M41.668 4.666c1.312 0 2.376-.907 2.376-2.026 0-1.12-1.064-2.028-2.376-2.028-1.31 0-2.374.908-2.374 2.028 0 1.119 1.063 2.026 2.374 2.026zM23.47 5.761c-.107.23-.879 2.09-2.745 4.018V1.535l-4.973.838v14.944h4.973v-4.62c1.44 1.845 2.151 4.62 2.151 4.62h5.957c-.59-2.09-3.167-5.945-3.167-5.945 2.313-2.503 3.33-5.17 3.49-5.611H23.47zm13.073-.156c-4.454.122-6.715 1.827-6.715 5.217v6.495h4.86v-5.296c0-2.03.311-2.9 3.133-2.983V5.664c-.474-.086-1.278-.06-1.278-.06zM7.413 7.406c-.61-.034-2.02-.112-2.02-1.195 0-1.308 2.03-1.308 2.792-1.308 1.339 0 3.073.338 4.311.654 0 0 .69.208 1.279.42l.054.013V2.41l-.075-.02c-1.461-.436-3.16-.855-6.311-.855-5.432 0-7.357 2.7-7.357 5.014 0 1.334.67 4.473 6.891 4.835.527.028 1.927.097 1.927 1.216 0 .925-1.146 1.47-3.073 1.47-2.112 0-4.161-.46-5.406-.896v3.688c1.863.417 3.963.625 6.425.625 5.311 0 7.69-2.555 7.69-5.088 0-2.872-2.662-4.738-7.128-4.993zm31.846 9.911h4.82V5.774h-4.82v11.543zM53.155 2.271v15.046h4.82V1.535l-4.82.736zm-7.034 0l4.816-.736v15.782H46.12V2.271z"
                fill="url(#skrill_svg__b)"></path>
        </g>
        <defs>
            <linearGradient id="skrill_svg__b" x1="15.741" y1=".612" x2="18.936" y2="21.602"
                gradientUnits="userSpaceOnUse">
                <stop stop-color="#6B195F"></stop>
                <stop offset="1" stop-color="#4C255B"></stop>
            </linearGradient>
            <clipPath id="skrill_svg__a">
                <path fill="#fff" transform="translate(.086)" d="M0 0h58v18H0z"></path>
            </clipPath>
        </defs>
    </g>
    <g class="skrill_svg__mono">
        <g clip-path="url(#skrill_svg__c)">
            <path fill-rule="evenodd" clip-rule="evenodd"
                d="M42.068 4.666c1.313 0 2.376-.907 2.376-2.026 0-1.12-1.064-2.028-2.376-2.028-1.31 0-2.374.908-2.374 2.028 0 1.119 1.063 2.026 2.374 2.026zM23.87 5.761c-.107.23-.879 2.09-2.745 4.018V1.535l-4.973.838v14.944h4.973v-4.62c1.44 1.845 2.151 4.62 2.151 4.62h5.957c-.59-2.09-3.167-5.945-3.167-5.945 2.313-2.503 3.33-5.17 3.491-5.611H23.87zm13.073-.156c-4.454.122-6.715 1.827-6.715 5.217v6.495h4.86v-5.296c0-2.03.311-2.9 3.134-2.983V5.664c-.475-.086-1.279-.06-1.279-.06zM7.814 7.406c-.61-.034-2.02-.112-2.02-1.195 0-1.308 2.03-1.308 2.792-1.308 1.339 0 3.073.338 4.311.654 0 0 .69.208 1.279.42l.054.013V2.41l-.075-.02c-1.461-.436-3.16-.855-6.311-.855-5.432 0-7.357 2.7-7.357 5.014 0 1.334.67 4.473 6.891 4.835.527.028 1.927.097 1.927 1.216 0 .925-1.146 1.47-3.073 1.47-2.112 0-4.161-.46-5.406-.896v3.688c1.863.417 3.964.625 6.425.625 5.312 0 7.69-2.555 7.69-5.088 0-2.872-2.662-4.738-7.128-4.993zm31.846 9.911h4.82V5.774h-4.82v11.543zM53.555 2.271v15.046h4.82V1.535l-4.82.736zm-7.034 0l4.816-.736v15.782h-4.816V2.271z"
                fill="#34405E"></path>
        </g>
        <defs>
            <clipPath id="skrill_svg__c">
                <path fill="#fff" transform="translate(.486)" d="M0 0h58v18H0z"></path>
            </clipPath>
        </defs>
    </g>
</svg>