<svg data-v-b1d97862="" xmlns="http://www.w3.org/2000/svg" viewBox="0 0 18 14" aria-hidden="true"
    role="img" class="icon icon-stats sm">
    <path
        d="M12.389.444a.5.5 0 01.5.5v12.334a.5.5 0 01-.5.5h-2.333a.5.5 0 01-.5-.5V.944a.5.5 0 01.5-.5h2.333zM16.833 6a.5.5 0 01.5.5v6.778a.5.5 0 01-.5.5H14.5a.5.5 0 01-.5-.5V6.5a.5.5 0 01.5-.5h2.333zM7.944 3.778a.5.5 0 01.5.5v9a.5.5 0 01-.5.5H5.611a.5.5 0 01-.5-.5v-9a.5.5 0 01.5-.5h2.333zM3.5 9.333a.5.5 0 01.5.5v3.445a.5.5 0 01-.5.5H1.167a.5.5 0 01-.5-.5V9.833a.5.5 0 01.5-.5H3.5z"></path>
</svg>