<svg viewBox="0 0 120 116" fill="none" xmlns="http://www.w3.org/2000/svg">
    <g id="icons_tennis-72">
        <circle id="Oval" cx="13.693" cy="13.842" r="9.68365"
            transform="rotate(-46.54 13.693 13.842)" fill="white" />
        <path id="Path"
            d="M106.012 79.7855C97.7502 88.3271 86.4483 94.1791 75.6 94.7421C75.3105 94.7585 75.0272 94.6536 74.8183 94.4525C59.6719 79.9753 36.2124 56.4579 27.2719 47.8262C27.0752 47.6449 26.9593 47.3923 26.9502 47.1249C26.6284 37.8627 29.0703 28.0954 40.6842 15.4102C58.1437 -3.68046 88.7936 -2.79252 106.832 14.9758C124.871 32.7442 124.002 61.2579 106.012 79.7855Z"
            fill="white" />
        <path id="Path_2"
            d="M11.704 90.8686C9.88309 91.3705 9.27183 92.4096 9.06915 92.9887C8.80534 93.5968 8.52223 94.8515 9.57746 96.5694C10.9898 98.8214 12.9909 101.717 17.1217 105.832L17.2472 105.957C21.1624 109.866 25.0198 112.893 27.1335 114.302C28.097 114.996 29.3113 115.244 30.4697 114.984C31.6635 114.596 32.6215 113.695 33.082 112.527C33.2171 112.234 33.3683 111.899 33.5292 111.542C35.556 107.038 39.7801 97.6729 45.0852 93.6772C51.9024 88.5137 62.5158 91.6182 67.4381 93.1399C67.4696 93.1499 67.5039 93.1466 67.533 93.1308C67.5621 93.115 67.5835 93.0882 67.5925 93.0563L62.786 88.2563C62.6585 88.127 62.4926 88.0424 62.3131 88.015C56.0911 87.0177 48.2252 86.4386 42.5533 90.7753C38.133 94.1147 34.7292 100.906 32.2584 105.861C31.5507 107.276 30.933 108.495 30.3732 109.499C29.8681 110.397 28.8482 110.619 27.7705 110.056C25.7212 108.994 23.2021 106.472 20.5287 103.798L19.8627 103.132C17.7749 101.093 15.8655 98.8795 14.1555 96.5147C13.845 96.0816 13.758 95.5271 13.921 95.0197C14.084 94.5124 14.4777 94.1122 14.9823 93.941C18.8429 92.5898 26.9147 89.7812 31.512 81.5324C35.6944 74.133 34.8096 63.1946 32.5737 58.1887C32.3131 57.6064 31.6086 57.2236 31.0584 56.6541C30.0933 55.6697 29.3083 54.9072 28.044 53.5753C28.0182 53.556 27.7222 53.1957 27.6515 53.3919C27.6257 53.4724 27.7029 53.6107 27.7448 53.7137C29.6011 58.4557 33.259 70.1887 28.1308 79.3769C23.3405 87.9442 14.5769 90.1448 11.704 90.8686Z"
            fill="white" />
    </g>
</svg>