<svg viewBox="0 0 58 18" fill="none" xmlns="http://www.w3.org/2000/svg" aria-hidden="true">
    <g class="tether_svg__color">
        <path d="M8.723 16.682a7.514 7.514 0 100-15.028 7.514 7.514 0 000 15.028z" fill="#26A17B"></path>
        <path
            d="M9.524 9.862V9.86c-.052.003-.32.019-.917.019-.477 0-.811-.013-.93-.02v.002c-1.835-.081-3.204-.4-3.204-.783 0-.382 1.37-.702 3.204-.783v1.248c.12.008.464.029.939.029.57 0 .855-.024.908-.029V8.297c1.832.082 3.197.401 3.197.783s-1.367.7-3.197.783v-.001zm0-1.694V7.052h2.555V5.35H5.123v1.702h2.555v1.116c-2.076.096-3.637.506-3.637 1 0 .492 1.562.903 3.637 1v3.578h1.848v-3.579c2.072-.095 3.63-.506 3.63-.999 0-.491-1.558-.903-3.63-.999"
            fill="#fff"></path>
        <path
            d="M22.62 5.815V7.62h1.754v1.354h-1.766v2.746c0 .606.334.902.825.902.245 0 .529-.077.76-.193l.44 1.34c-.451.18-.826.258-1.303.271-1.38.052-2.282-.734-2.282-2.32V8.974h-1.186V7.62h1.186V5.983l1.572-.168zm30.241 1.72l.116.735c.49-.787 1.148-.903 1.793-.903.657 0 1.289.257 1.637.605l-.71 1.367c-.322-.27-.618-.413-1.134-.413-.825 0-1.586.438-1.586 1.611v3.352h-1.573V7.534l1.457.002zm-3.855 2.437c-.103-.825-.748-1.239-1.65-1.239-.85 0-1.548.414-1.78 1.239h3.43zm-3.455 1.302c.103.787.786 1.354 1.895 1.354.58 0 1.342-.22 1.703-.593l1.005.993c-.67.696-1.766 1.032-2.734 1.032-2.192 0-3.495-1.354-3.495-3.391 0-1.934 1.316-3.327 3.379-3.327 2.127 0 3.456 1.315 3.211 3.932h-4.964zm-6.937-6.409v3.533c.568-.735 1.264-.955 1.986-.955 1.805 0 2.605 1.225 2.605 3.095v3.353h-1.573v-3.34c0-1.16-.606-1.65-1.445-1.65-.929 0-1.573.787-1.573 1.741v3.25h-1.572V4.867l1.572-.002zm-4.177.877v1.805h1.754v1.354h-1.766v2.746c0 .607.336.903.825.903.245 0 .53-.078.761-.194l.439 1.341c-.451.18-.826.258-1.303.271-1.38.052-2.282-.736-2.282-2.32V8.9H31.68V7.547h1.186V5.91l1.572-.168zm-4.345 4.23c-.103-.825-.748-1.239-1.65-1.239-.851 0-1.548.414-1.78 1.239h3.43zm-3.455 1.302c.102.787.786 1.354 1.895 1.354.58 0 1.341-.22 1.702-.593l1.005.993c-.67.696-1.766 1.032-2.734 1.032-2.192 0-3.494-1.354-3.494-3.391 0-1.934 1.315-3.327 3.377-3.327 2.128 0 3.455 1.315 3.211 3.932h-4.962z"
            fill="#5B5A5D"></path>
        <path
            d="M22.62 5.815V7.62h1.754v1.354h-1.766v2.746c0 .606.334.902.825.902.245 0 .529-.077.76-.193l.44 1.34c-.451.18-.826.258-1.303.271-1.38.052-2.282-.734-2.282-2.32V8.974h-1.186V7.62h1.186V5.983l1.572-.168zm30.241 1.72l.116.735c.49-.787 1.148-.903 1.793-.903.657 0 1.289.257 1.637.605l-.71 1.367c-.322-.27-.618-.413-1.134-.413-.825 0-1.586.438-1.586 1.611v3.352h-1.573V7.534l1.457.002zm-3.855 2.437c-.103-.825-.748-1.239-1.65-1.239-.85 0-1.548.414-1.78 1.239h3.43zm-3.455 1.302c.103.787.786 1.354 1.895 1.354.58 0 1.342-.22 1.703-.593l1.005.993c-.67.696-1.766 1.032-2.734 1.032-2.192 0-3.495-1.354-3.495-3.391 0-1.934 1.316-3.327 3.379-3.327 2.127 0 3.456 1.315 3.211 3.932h-4.964zm-6.937-6.409v3.533c.568-.735 1.264-.955 1.986-.955 1.805 0 2.605 1.225 2.605 3.095v3.353h-1.573v-3.34c0-1.16-.606-1.65-1.445-1.65-.929 0-1.573.787-1.573 1.741v3.25h-1.572V4.867l1.572-.002zm-4.177.877v1.805h1.754v1.354h-1.766v2.746c0 .607.336.903.825.903.245 0 .53-.078.761-.194l.439 1.341c-.451.18-.826.258-1.303.271-1.38.052-2.282-.736-2.282-2.32V8.9H31.68V7.547h1.186V5.91l1.572-.168zm-4.345 4.23c-.103-.825-.748-1.239-1.65-1.239-.851 0-1.548.414-1.78 1.239h3.43zm-3.455 1.302c.102.787.786 1.354 1.895 1.354.58 0 1.341-.22 1.702-.593l1.005.993c-.67.696-1.766 1.032-2.734 1.032-2.192 0-3.494-1.354-3.494-3.391 0-1.934 1.315-3.327 3.377-3.327 2.128 0 3.455 1.315 3.211 3.932h-4.962z"
            fill="#BCBCBC"></path>
    </g>
    <g class="tether_svg__mono" fill="#34405E">
        <path fill-rule="evenodd" clip-rule="evenodd"
            d="M16.237 9.168a7.514 7.514 0 11-15.028 0 7.514 7.514 0 0115.028 0zm-6.713.693v.002c1.83-.082 3.197-.401 3.197-.783s-1.365-.7-3.197-.783v1.247c-.053.005-.338.029-.908.029-.475 0-.82-.02-.939-.029V8.296c-1.834.081-3.204.401-3.204.783 0 .383 1.37.702 3.204.783V9.86c.119.006.453.019.93.019.597 0 .865-.016.917-.02zm0-2.81v1.117l.002.001c2.072.096 3.63.508 3.63 1s-1.558.903-3.63.998v3.579H7.678v-3.579c-2.075-.096-3.637-.507-3.637-1s1.56-.903 3.637-.999V7.052H5.123V5.35h6.956v1.702H9.524z"></path>
        <path
            d="M22.62 5.815V7.62h1.754v1.354h-1.766v2.746c0 .606.334.902.825.902.245 0 .529-.077.76-.193l.44 1.34c-.451.18-.826.258-1.303.271-1.38.052-2.282-.734-2.282-2.32V8.974h-1.186V7.62h1.186V5.983l1.572-.168zm30.241 1.72l.116.735c.49-.787 1.148-.903 1.793-.903.657 0 1.289.257 1.637.605l-.71 1.367c-.322-.27-.618-.413-1.134-.413-.825 0-1.586.438-1.586 1.611v3.352h-1.573V7.534l1.457.002zm-3.855 2.437c-.103-.825-.748-1.239-1.65-1.239-.85 0-1.548.414-1.78 1.239h3.43zm-3.455 1.302c.103.787.786 1.354 1.895 1.354.58 0 1.342-.22 1.703-.593l1.005.993c-.67.696-1.766 1.032-2.734 1.032-2.192 0-3.495-1.354-3.495-3.391 0-1.934 1.316-3.327 3.379-3.327 2.127 0 3.456 1.315 3.211 3.932h-4.964zm-6.937-6.409v3.533c.568-.735 1.264-.955 1.986-.955 1.805 0 2.605 1.225 2.605 3.095v3.353h-1.573v-3.34c0-1.16-.606-1.65-1.445-1.65-.929 0-1.573.787-1.573 1.741v3.25h-1.572V4.867l1.572-.002zm-4.177.877v1.805h1.754v1.354h-1.766v2.746c0 .607.336.903.825.903.245 0 .53-.078.761-.194l.439 1.341c-.451.18-.826.258-1.303.271-1.38.052-2.282-.736-2.282-2.32V8.9H31.68V7.547h1.186V5.91l1.572-.168zm-4.345 4.23c-.103-.825-.748-1.239-1.65-1.239-.851 0-1.548.414-1.78 1.239h3.43zm-3.455 1.302c.102.787.786 1.354 1.895 1.354.58 0 1.341-.22 1.702-.593l1.005.993c-.67.696-1.766 1.032-2.734 1.032-2.192 0-3.494-1.354-3.494-3.391 0-1.934 1.315-3.327 3.377-3.327 2.128 0 3.455 1.315 3.211 3.932h-4.962z"></path>
        <path
            d="M22.62 5.815V7.62h1.754v1.354h-1.766v2.746c0 .606.334.902.825.902.245 0 .529-.077.76-.193l.44 1.34c-.451.18-.826.258-1.303.271-1.38.052-2.282-.734-2.282-2.32V8.974h-1.186V7.62h1.186V5.983l1.572-.168zm30.241 1.72l.116.735c.49-.787 1.148-.903 1.793-.903.657 0 1.289.257 1.637.605l-.71 1.367c-.322-.27-.618-.413-1.134-.413-.825 0-1.586.438-1.586 1.611v3.352h-1.573V7.534l1.457.002zm-3.855 2.437c-.103-.825-.748-1.239-1.65-1.239-.85 0-1.548.414-1.78 1.239h3.43zm-3.455 1.302c.103.787.786 1.354 1.895 1.354.58 0 1.342-.22 1.703-.593l1.005.993c-.67.696-1.766 1.032-2.734 1.032-2.192 0-3.495-1.354-3.495-3.391 0-1.934 1.316-3.327 3.379-3.327 2.127 0 3.456 1.315 3.211 3.932h-4.964zm-6.937-6.409v3.533c.568-.735 1.264-.955 1.986-.955 1.805 0 2.605 1.225 2.605 3.095v3.353h-1.573v-3.34c0-1.16-.606-1.65-1.445-1.65-.929 0-1.573.787-1.573 1.741v3.25h-1.572V4.867l1.572-.002zm-4.177.877v1.805h1.754v1.354h-1.766v2.746c0 .607.336.903.825.903.245 0 .53-.078.761-.194l.439 1.341c-.451.18-.826.258-1.303.271-1.38.052-2.282-.736-2.282-2.32V8.9H31.68V7.547h1.186V5.91l1.572-.168zm-4.345 4.23c-.103-.825-.748-1.239-1.65-1.239-.851 0-1.548.414-1.78 1.239h3.43zm-3.455 1.302c.102.787.786 1.354 1.895 1.354.58 0 1.341-.22 1.702-.593l1.005.993c-.67.696-1.766 1.032-2.734 1.032-2.192 0-3.494-1.354-3.494-3.391 0-1.934 1.315-3.327 3.377-3.327 2.128 0 3.455 1.315 3.211 3.932h-4.962z"></path>
    </g>
</svg>