<svg xmlns="http://www.w3.org/2000/svg" width="12" height="14" viewBox="0 0 12 14"
    aria-hidden="true" role="img">
    <path
        d="M7.322.5c.346-.01.682.118.929.354.16.163.285.355.368.564v.01L9.13 2.64h2.597a.27.27 0 01.273.266v.608a.27.27 0 01-.273.266h-.724v8.152c0 .866-.722 1.567-1.61 1.568H2.607c-.89 0-1.61-.702-1.611-1.568V3.78H.273A.27.27 0 010 3.514v-.608c0-.07.028-.139.08-.19a.277.277 0 01.193-.077H2.87l.516-1.222a1.71 1.71 0 01.368-.564C4 .618 4.334.49 4.678.5zm2.586 3.28H2.094v8.152c0 .277.23.501.514.502h6.784a.51.51 0 00.516-.502V3.78zm-6.15 1.605c.31 0 .563.252.563.563v4.266a.563.563 0 11-1.126 0V5.948c0-.31.252-.563.563-.563zm2.243 0c.31 0 .562.252.562.563v4.266a.563.563 0 11-1.125 0V5.948c0-.31.252-.563.563-.563zm2.222 0c.31 0 .563.252.563.563v4.266a.563.563 0 11-1.126 0V5.948c0-.31.252-.563.563-.563zm-.9-3.817H4.677c-.126 0-.17.012-.284.269l-.338.803h3.89l-.34-.803c-.114-.257-.16-.269-.284-.269z"></path>
</svg>